<svg width="151" height="241" viewBox="0 0 151 241" fill="none" xmlns="http://www.w3.org/2000/svg">
<path opacity="0.966" fill-rule="evenodd" clip-rule="evenodd" d="M24.4999 0.499978C33.0509 -0.859022 40.7179 0.973978 47.4999 5.99998C79.9999 38.5 112.5 71 145 103.5C152.333 114.833 152.333 126.167 145 137.5C112.41 169.423 79.9099 201.923 47.4999 235C39.6109 240.667 30.9449 242 21.4999 239C12.1099 233.284 5.27593 225.451 0.999925 215.5C-0.715075 207.365 0.951925 200.031 5.99993 193.5C30.3469 169.32 54.5139 144.986 78.4999 120.5C54.5139 96.014 30.3469 71.68 5.99993 47.5C0.388925 39.545 -0.944075 30.878 1.99993 21.5C7.80993 12.518 15.3099 5.51798 24.4999 0.499978Z" fill="#FFFFFF"/>
</svg>
