<svg width="513" height="513" viewBox="0 0 513 513" fill="none" xmlns="http://www.w3.org/2000/svg">
<path opacity="0.992" fill-rule="evenodd" clip-rule="evenodd" d="M33.5003 0.499896C118.834 0.332896 204.167 0.499896 289.5 0.999896C319.431 8.2649 336.931 27.0979 342 57.4999C342.667 82.4999 342.667 107.5 342 132.5C337.406 147.216 327.573 152.716 312.5 149C306.333 146.833 302.167 142.667 300 136.5C298.703 110.882 298.037 85.2159 298 59.4999C295.401 51.2339 289.901 46.0679 281.5 43.9999C248.5 43.3329 215.5 43.3329 182.5 43.9999C200.526 49.6909 211.026 61.8579 214 80.4999C214.5 188.833 214.667 297.166 214.5 405.5C236.836 405.667 259.169 405.5 281.5 405C289.901 402.932 295.401 397.766 298 389.5C298.333 358.167 298.667 326.833 299 295.5C303.599 279.948 313.765 274.448 329.5 279C335.061 281.562 338.894 285.728 341 291.5C342.139 308.783 342.639 326.116 342.5 343.5C342.333 359.5 342.167 375.5 342 391.5C336.931 421.902 319.431 440.735 289.5 448C264.502 448.5 239.502 448.667 214.5 448.5C215.107 460.625 214.274 472.625 212 484.5C201.08 507.88 182.913 516.71 157.5 511C112.759 496.198 68.0932 481.198 23.5002 466C11.7902 459.43 4.29025 449.597 1.00025 436.5C0.33325 302.167 0.33325 167.833 1.00025 33.4999C6.01625 16.6509 16.8503 5.6509 33.5003 0.499896Z" fill="#595A59"/>
<path opacity="0.979" fill-rule="evenodd" clip-rule="evenodd" d="M402.5 106.5C408.622 106.28 414.288 107.78 419.5 111C449 140.5 478.5 170 508 199.5C514.26 209.749 513.93 219.749 507 229.5C478.5 258 450 286.5 421.5 315C411.749 321.929 401.749 322.262 391.5 316C386.707 311.578 384.207 306.078 384 299.5C383.5 278.169 383.333 256.836 383.5 235.5C353.498 235.667 323.498 235.5 293.5 235C279.731 229.627 274.897 219.794 279 205.5C281.482 199.172 285.982 195.006 292.5 193C322.832 192.5 353.165 192.333 383.5 192.5C383.073 168.799 383.573 145.132 385 121.5C388.306 113.347 394.14 108.347 402.5 106.5Z" fill="#595A59"/>
</svg>
