<svg width="513" height="431" viewBox="0 0 513 431" fill="none" xmlns="http://www.w3.org/2000/svg">
<path opacity="0.987" fill-rule="evenodd" clip-rule="evenodd" d="M113.5 0.499972C156.663 -2.84803 187.496 14.818 206 53.5C219.423 94.883 209.256 129.05 175.5 156C149.979 171.844 122.979 174.844 94.5 165C60.242 149.673 42.576 123.173 41.5 85.5C42.576 47.827 60.242 21.327 94.5 5.99997C100.828 3.67297 107.162 1.83997 113.5 0.499972Z" fill="#595A59"/>
<path opacity="0.987" fill-rule="evenodd" clip-rule="evenodd" d="M373.5 0.499972C416.663 -2.84803 447.496 14.818 466 53.5C479.423 94.883 469.256 129.05 435.5 156C409.979 171.844 382.979 174.844 354.5 165C320.242 149.673 302.576 123.173 301.5 85.5C302.576 47.827 320.242 21.327 354.5 5.99997C360.828 3.67297 367.162 1.83997 373.5 0.499972Z" fill="#595A59"/>
<path opacity="0.993" fill-rule="evenodd" clip-rule="evenodd" d="M214.5 161.5C242.997 160.336 271.664 160.17 300.5 161C336.572 198.018 379.239 208.685 428.5 193C409.109 214.275 403.609 238.775 412 266.5C422.051 292.776 440.885 308.609 468.5 314C479.47 315.165 490.47 315.665 501.5 315.5C501.667 350.835 501.5 386.168 501 421.5C499.5 425.667 496.667 428.5 492.5 430C477.17 430.5 461.837 430.667 446.5 430.5C446.667 403.831 446.5 377.165 446 350.5C442.437 336.472 434.271 332.972 421.5 340C418.773 342.956 417.273 346.456 417 350.5C416.5 377.165 416.333 403.831 416.5 430.5C368.167 430.5 319.833 430.5 271.5 430.5C271.667 378.832 271.5 327.166 271 275.5C269.976 228.452 251.142 190.452 214.5 161.5Z" fill="#595A59"/>
<path opacity="0.993" fill-rule="evenodd" clip-rule="evenodd" d="M189.5 180.5C190.873 180.343 192.207 180.51 193.5 181C218.173 199.154 233.673 223.321 240 253.5C241.472 312.472 241.972 371.472 241.5 430.5C193.167 430.5 144.833 430.5 96.5003 430.5C96.6673 403.831 96.5003 377.165 96.0003 350.5C92.4373 336.472 84.2713 332.972 71.5003 340C68.7733 342.956 67.2733 346.456 67.0003 350.5C66.5003 377.165 66.3333 403.831 66.5003 430.5C51.1633 430.667 35.8302 430.5 20.5002 430C16.3333 428.5 13.5002 425.667 12.0002 421.5C11.3332 385.833 11.3332 350.167 12.0002 314.5C41.8442 319.546 67.1773 311.213 88.0003 289.5C105.277 267.436 109.277 243.102 100 216.5C96.2003 207.724 91.0333 199.89 84.5003 193C93.3073 195.449 102.307 197.449 111.5 199C139.881 202.56 165.881 196.393 189.5 180.5Z" fill="#595A59"/>
<path opacity="0.979" fill-rule="evenodd" clip-rule="evenodd" d="M24.5002 200.5C50.2213 198.076 67.0553 209.076 75.0003 233.5C78.3963 259.75 67.5633 276.917 42.5003 285C31.5003 285.667 20.5002 285.667 9.50025 285C5.33325 283.5 2.50025 280.667 1.00025 276.5C0.33325 259.167 0.33325 241.833 1.00025 224.5C5.01825 212.65 12.8512 204.65 24.5002 200.5Z" fill="#595A59"/>
<path opacity="0.979" fill-rule="evenodd" clip-rule="evenodd" d="M470.5 200.5C489.461 197.405 502.961 204.405 511 221.5C512.63 239.768 512.96 258.101 512 276.5C510.5 280.667 507.67 283.5 503.5 285C492.5 285.667 481.5 285.667 470.5 285C445.437 276.917 434.604 259.75 438 233.5C443.016 216.651 453.85 205.651 470.5 200.5Z" fill="#595A59"/>
</svg>
