<svg width="481" height="482" viewBox="0 0 481 482" fill="none" xmlns="http://www.w3.org/2000/svg">
<path opacity="0.964" fill-rule="evenodd" clip-rule="evenodd" d="M192.5 1.49999C247.148 -2.70501 289.314 17.962 319 63.5C337.26 95.658 341.593 129.658 332 165.5C314.55 217.618 278.717 248.118 224.5 257C169.832 261.693 127.665 241.193 98 195.5C79.74 163.342 75.407 129.342 85 93.5C102.618 41.371 138.452 10.704 192.5 1.49999ZM207.5 33.5C249.559 35.435 279.392 55.435 297 93.5C312.329 140.505 300.495 179.005 261.5 209C226.162 230.996 190.829 230.996 155.5 209C116.503 179 104.669 140.5 120 93.5C137.398 56.259 166.565 36.259 207.5 33.5Z" fill="#595A59"/>
<path opacity="0.988" fill-rule="evenodd" clip-rule="evenodd" d="M394.5 161.5C404.36 159.35 411.527 162.683 416 171.5C416.5 189.497 416.667 207.497 416.5 225.5C434.503 225.333 452.503 225.5 470.5 226C477.487 228.807 480.82 233.973 480.5 241.5C480.82 249.027 477.487 254.193 470.5 257C452.503 257.5 434.503 257.667 416.5 257.5C416.667 275.503 416.5 293.503 416 311.5C413.193 318.487 408.027 321.82 400.5 321.5C392.973 321.82 387.807 318.487 385 311.5C384.5 293.503 384.333 275.503 384.5 257.5C366.497 257.667 348.497 257.5 330.5 257C323.513 254.193 320.18 249.027 320.5 241.5C320.18 233.973 323.513 228.807 330.5 226C348.497 225.5 366.497 225.333 384.5 225.5C384.333 207.497 384.5 189.497 385 171.5C387.022 166.98 390.189 163.647 394.5 161.5Z" fill="#595A59"/>
<path opacity="0.977" fill-rule="evenodd" clip-rule="evenodd" d="M127.5 272.5C131.182 272.335 134.848 272.501 138.5 273C185.167 293.667 231.833 293.667 278.5 273C281.833 272.333 285.167 272.333 288.5 273C337.599 293.431 373.765 327.598 397 375.5C411.415 405.906 417.748 437.906 416 471.5C414.167 476 411 479.167 406.5 481C274.5 481.667 142.5 481.667 10.5 481C6.00004 479.167 2.83304 476 1.00004 471.5C-0.0189645 394.699 30.814 334.533 93.5 291C104.513 284.132 115.846 277.966 127.5 272.5ZM131.5 307.5C142.357 310.95 153.357 314.117 164.5 317C205.126 325.599 244.792 322.432 283.5 307.5C334.625 332.484 366.792 372.817 380 428.5C381.576 435.445 382.743 442.445 383.5 449.5C266.833 449.5 150.167 449.5 33.5 449.5C41.985 385.114 74.651 337.781 131.5 307.5Z" fill="#595A59"/>
</svg>
