<svg width="509" height="463" viewBox="0 0 509 463" fill="none" xmlns="http://www.w3.org/2000/svg">
<path opacity="0.974" fill-rule="evenodd" clip-rule="evenodd" d="M263.5 0.499956C360.557 -1.24204 433.391 39.424 482 122.5C516.03 191.137 517.7 260.471 487 330.5C444.243 412.913 376.243 456.913 283 462.5C264.686 462.525 258.353 453.859 264 436.5C266.264 433.567 269.098 431.4 272.5 430C344.657 428.678 401.491 398.844 443 340.5C479.229 282.204 485.229 220.87 461 156.5C434.648 96.902 390.148 58.069 327.5 40C241.912 22.19 172.079 47.357 118 115.5C88.669 157.146 76.336 203.479 81 254.5C81.954 268.901 84.621 282.901 89 296.5C93.529 285.914 97.862 275.247 102 264.5C108.057 252.038 117.223 249.205 129.5 256C134.665 262.417 135.832 269.584 133 277.5C123.276 301.947 113.276 326.281 103 350.5C96.626 357.625 89.126 359.125 80.5 355C55.664 340.081 30.664 325.414 5.5 311C-0.0690017 304.083 -0.903002 296.583 3 288.5C10.15 280.668 18.317 279.501 27.5 285C36.036 290.366 44.703 295.532 53.5 300.5C53.833 300 54.167 299.5 54.5 299C36.272 224.151 49.106 155.318 93 92.5C136.452 37.352 193.285 6.68596 263.5 0.499956Z" fill="#1C1C1A"/>
<path opacity="0.976" fill-rule="evenodd" clip-rule="evenodd" d="M373.5 130.5C386.455 128.631 393.788 134.131 395.5 147C395.135 150.763 393.968 154.263 392 157.5C357.833 191.667 323.667 225.833 289.5 260C282.943 265.053 275.943 265.719 268.5 262C237.167 248.667 205.833 235.333 174.5 222C165.292 212.977 165.292 203.977 174.5 195C177.449 193.239 180.616 192.072 184 191.5C189.024 192.397 193.857 193.897 198.5 196C223.459 206.598 248.459 217.098 273.5 227.5C304.986 196.514 336.32 165.347 367.5 134C369.727 133.059 371.727 131.892 373.5 130.5Z" fill="#1D1D1B"/>
</svg>
