<svg width="513" height="483" viewBox="0 0 513 483" fill="none" xmlns="http://www.w3.org/2000/svg">
<path opacity="0.985" fill-rule="evenodd" clip-rule="evenodd" d="M350.5 8.50001C349.932 12.067 347.932 14.401 344.5 15.5C265.499 15.333 186.499 15.5 107.5 16C97.6123 19.896 93.7793 27.063 96.0003 37.5C97.8073 43.307 101.64 47.141 107.5 49C207.001 49.832 306.334 49.666 405.5 48.5C415.821 44.773 419.654 37.44 417 26.5C414.293 20.726 409.793 17.226 403.5 16C393.833 15.667 384.167 15.333 374.5 15C372.174 13.195 370.508 11.028 369.5 8.50001C369.625 4.93701 371.292 2.43701 374.5 1.00001C385.833 0.333006 397.167 0.333006 408.5 1.00001C424.087 5.64501 432.42 16.145 433.5 32.5C433.122 41.084 430.122 48.584 424.5 55C463.127 75.094 477.96 106.594 469 149.5C452.614 192.204 421.781 210.037 376.5 203C372.554 201.694 368.888 199.861 365.5 197.5C364.5 244.829 364.167 292.162 364.5 339.5C411.233 353.688 457.9 368.188 504.5 383C512.03 384.62 514.53 389.12 512 396.5C505.736 411.126 499.569 425.793 493.5 440.5C510.7 445.559 516.2 456.559 510 473.5C501.975 482.562 492.142 485.062 480.5 481C424.318 470.886 368.152 460.72 312 450.5C309.509 453.473 307.509 456.806 306 460.5C300.887 467.638 294.054 472.138 285.5 474C264.782 474.953 244.115 474.62 223.5 473C213.311 468.144 205.811 460.644 201 450.5C144.848 460.72 88.6823 470.886 32.5003 481C20.9013 484.961 11.0673 482.461 3.00025 473.5C-3.19575 456.559 2.30425 445.559 19.5002 440.5C13.4313 425.793 7.26425 411.126 1.00025 396.5C0.33325 393.5 0.33325 390.5 1.00025 387.5C2.21425 385.951 3.71425 384.785 5.50025 384C29.8333 376.333 54.1673 368.667 78.5003 361C81.4193 360.448 84.0863 361.115 86.5003 363C87.2523 363.671 87.5863 364.504 87.5003 365.5C88.6483 370.439 86.9813 373.939 82.5003 376C61.2323 382.812 39.8993 389.312 18.5002 395.5C18.5942 399.325 20.0942 402.325 23.0002 404.5C77.6653 388.556 132.499 372.722 187.5 357C195.171 355.674 198.671 358.841 198 366.5C197.535 367.931 196.701 369.097 195.5 370C139.846 386.162 84.1793 402.162 28.5002 418C27.1792 419.545 27.5122 420.711 29.5002 421.5C80.9802 410.437 132.48 399.437 184 388.5C190.106 389.704 192.439 393.371 191 399.5C189.833 400.667 188.667 401.833 187.5 403C136.584 413.95 85.5843 424.45 34.5003 434.5C34.3303 435.822 34.6633 436.989 35.5003 438C37.8333 438.667 40.1673 438.667 42.5003 438C111.41 425.681 180.243 413.181 249 400.5C249.667 386.5 249.667 372.5 249 358.5C239.579 342.206 225.412 335.039 206.5 337C176.5 346.333 146.5 355.667 116.5 365C114.5 365.667 112.5 365.667 110.5 365C108.598 363.27 106.931 361.437 105.5 359.5C105.411 355.567 107.078 352.734 110.5 351C123.1 346.851 135.767 343.018 148.5 339.5C148.833 292.162 148.5 244.829 147.5 197.5C138.852 203.038 129.352 205.705 119 205.5C77.4433 202.607 51.7773 180.94 42.0003 140.5C37.7883 101.08 53.2882 72.58 88.5003 55C78.1433 42.307 76.9763 28.807 85.0003 14.5C89.8423 7.66601 96.3423 3.16601 104.5 1.00001C185.167 0.333006 265.833 0.333006 346.5 1.00001C349.397 2.71501 350.731 5.21501 350.5 8.50001Z" fill="#030303"/>
<path fill-rule="evenodd" clip-rule="evenodd" d="M350.5 8.5C356.833 8.5 363.167 8.5 369.5 8.5C370.508 11.028 372.174 13.195 374.5 15C384.167 15.333 393.833 15.667 403.5 16C409.793 17.226 414.293 20.726 417 26.5C419.654 37.44 415.821 44.773 405.5 48.5C321.833 48.667 238.166 48.5 154.5 48C150.736 43.54 149.069 38.373 149.5 32.5C149.069 26.627 150.736 21.46 154.5 17C218.001 16.833 281.335 16.333 344.5 15.5C347.932 14.401 349.932 12.067 350.5 8.5Z" fill="#C7EEFD"/>
<path fill-rule="evenodd" clip-rule="evenodd" d="M344.5 15.5C281.335 16.333 218.001 16.833 154.5 17C150.736 21.46 149.069 26.627 149.5 32.5C149.069 38.373 150.736 43.54 154.5 48C238.166 48.5 321.833 48.667 405.5 48.5C306.334 49.666 207.001 49.832 107.5 49C101.64 47.141 97.8068 43.307 95.9998 37.5C93.7788 27.063 97.6118 19.896 107.5 16C186.499 15.5 265.499 15.333 344.5 15.5Z" fill="#98DAEE"/>
<path fill-rule="evenodd" clip-rule="evenodd" d="M119.5 64.5C83.6439 87.91 73.8099 119.577 89.9999 159.5C97.3579 172.024 107.192 182.024 119.5 189.5C87.7229 188.02 67.2229 172.02 57.9999 141.5C52.9119 108.174 65.4119 84.007 95.4999 69C103.18 65.764 111.18 64.264 119.5 64.5Z" fill="#C6ECFB"/>
<path fill-rule="evenodd" clip-rule="evenodd" d="M119.5 64.5C215.197 64.014 310.864 64.514 406.5 66C429.682 72 445.515 86.166 454 108.5C461.378 143.073 449.545 168.573 418.5 185C407.178 189.151 395.512 190.484 383.5 189C370.771 184.555 364.438 175.555 364.5 162C366.209 143.296 376.543 133.963 395.5 134C401.209 130.455 401.875 126.121 397.5 121C396.5 120.667 395.5 120.333 394.5 120C302.167 119.333 209.833 119.333 117.5 120C110.833 124.667 110.833 129.333 117.5 134C136.48 133.988 146.813 143.321 148.5 162C147.785 180.548 138.118 189.714 119.5 189.5C107.192 182.024 97.3579 172.024 89.9999 159.5C73.8099 119.577 83.6439 87.91 119.5 64.5Z" fill="#DEF5FC"/>
<path fill-rule="evenodd" clip-rule="evenodd" d="M183.5 134.5C183.168 199.002 183.501 263.335 184.5 327.5C177.948 329.815 171.281 332.149 164.5 334.5C163.667 274.169 163.167 213.836 163 153.5C161.505 146.844 158.671 140.844 154.5 135.5C164.144 134.502 173.81 134.168 183.5 134.5Z" fill="#98E5FB"/>
<path fill-rule="evenodd" clip-rule="evenodd" d="M183.5 134.5C241.837 134.167 300.17 134.5 358.5 135.5C354.329 140.844 351.495 146.844 350 153.5C349.5 213.832 349.333 274.166 349.5 334.5C341.786 332.374 334.119 330.04 326.5 327.5C325.981 279.458 325.148 231.458 324 183.5C317.158 168.827 305.658 162.66 289.5 165C278.469 168.697 271.636 176.197 269 187.5C268.667 235.5 268.333 283.5 268 331.5C263.659 334.675 259.826 338.342 256.5 342.5C253.174 338.342 249.341 334.675 245 331.5C244.667 283.5 244.333 235.5 244 187.5C238.594 170.039 226.761 162.539 208.5 165C197.488 168.68 190.654 176.18 188 187.5C187.5 234.165 187.333 280.832 187.5 327.5C186.5 327.5 185.5 327.5 184.5 327.5C183.501 263.335 183.168 199.002 183.5 134.5Z" fill="#C7EEFD"/>
<path fill-rule="evenodd" clip-rule="evenodd" d="M211.5 179.5C220.131 178.088 225.965 181.421 229 189.5C229.5 234.165 229.667 278.832 229.5 323.5C220.884 321.444 212.218 321.111 203.5 322.5C202.333 278.17 202.167 233.837 203 189.5C204.261 184.745 207.095 181.412 211.5 179.5Z" fill="#C2E8F6"/>
<path fill-rule="evenodd" clip-rule="evenodd" d="M292.5 179.5C301.217 178.103 307.05 181.437 310 189.5C310.5 233.832 310.667 278.165 310.5 322.5C301.414 320.983 292.414 321.316 283.5 323.5C283.333 278.832 283.5 234.165 284 189.5C285.687 185.084 288.52 181.751 292.5 179.5Z" fill="#C2E8F6"/>
<path fill-rule="evenodd" clip-rule="evenodd" d="M87.5 365.5C93.784 364.072 99.784 362.072 105.5 359.5C106.931 361.437 108.598 363.27 110.5 365C112.5 365.667 114.5 365.667 116.5 365C146.5 355.667 176.5 346.333 206.5 337C225.412 335.039 239.579 342.206 249 358.5C249.667 372.5 249.667 386.5 249 400.5C180.243 413.181 111.41 425.681 42.5 438C40.167 438.667 37.833 438.667 35.5 438C34.663 436.989 34.33 435.822 34.5 434.5C85.584 424.45 136.584 413.95 187.5 403C188.667 401.833 189.833 400.667 191 399.5C192.439 393.371 190.106 389.704 184 388.5C132.48 399.437 80.98 410.437 29.5 421.5C27.512 420.711 27.179 419.545 28.5 418C84.179 402.162 139.846 386.162 195.5 370C196.701 369.097 197.535 367.931 198 366.5C198.671 358.841 195.171 355.674 187.5 357C132.499 372.722 77.665 388.556 23 404.5C20.094 402.325 18.594 399.325 18.5 395.5C39.899 389.312 61.232 382.812 82.5 376C86.981 373.939 88.648 370.439 87.5 365.5Z" fill="#F3F0F0"/>
<path fill-rule="evenodd" clip-rule="evenodd" d="M292.5 336.5C297.179 336.334 301.845 336.501 306.5 337C369.443 356.482 432.11 376.648 494.5 397.5C493.974 400.573 492.474 402.906 490 404.5C434.856 388.589 379.689 372.756 324.5 357C317.333 356.167 314.167 359.333 315 366.5C315.833 368.667 317.333 370.167 319.5 371C374.938 386.859 430.271 403.026 485.5 419.5C482.894 420.652 480.227 420.818 477.5 420C427.759 409.818 378.092 399.318 328.5 388.5C322.75 389.994 320.584 393.661 322 399.5C323.167 400.667 324.333 401.833 325.5 403C376.178 413.672 426.845 424.339 477.5 435C478.647 436.904 478.147 438.404 476 439.5C405.489 426.72 334.989 413.887 264.5 401C263.344 386.908 263.177 372.742 264 358.5C270.475 347.185 279.975 339.852 292.5 336.5Z" fill="#F3F0F0"/>
<path fill-rule="evenodd" clip-rule="evenodd" d="M253.5 414.5C334.214 428.678 414.881 443.178 495.5 458C498.83 462.853 497.663 466.019 492 467.5C428.996 456.166 365.996 444.833 303 433.5C300.497 433.99 298.497 435.323 297 437.5C297.01 447.993 292.176 455.159 282.5 459C265.167 459.667 247.833 459.667 230.5 459C220.838 455.196 216.004 448.029 216 437.5C214.13 434.982 211.63 433.648 208.5 433.5C145.805 444.706 83.1379 456.039 20.4999 467.5C15.2579 465.702 14.2579 462.536 17.4999 458C96.2789 443.409 174.946 428.909 253.5 414.5Z" fill="#F67C83"/>
</svg>
