<svg width="257" height="241" viewBox="0 0 257 241" fill="none" xmlns="http://www.w3.org/2000/svg">
<path opacity="0.95" fill-rule="evenodd" clip-rule="evenodd" d="M126.5 0.5C135.012 0.795 143.012 2.961 150.5 7C161.637 17.137 172.471 27.637 183 38.5C183.333 32.833 183.667 27.167 184 21.5C187.379 12.392 193.879 8.892 203.5 11C206.902 12.4 209.736 14.567 212 17.5C213.292 34.767 213.959 52.101 214 69.5C228.029 83.195 241.696 97.195 255 111.5C259.711 124.419 255.378 132.086 242 134.5C238.077 134.526 234.577 133.359 231.5 131C198.5 98 165.5 65 132.5 32C129.833 31.333 127.167 31.333 124.5 32C91.5002 65 58.5002 98 25.5002 131C16.6682 136.537 8.83423 135.371 2.00023 127.5C-0.468766 120.786 0.197234 114.453 4.00023 108.5C36.1672 76.333 68.3332 44.167 100.5 12C107.922 5.145 116.589 1.312 126.5 0.5Z" fill="#595A59"/>
<path opacity="0.982" fill-rule="evenodd" clip-rule="evenodd" d="M124.5 58.5C127.187 58.336 129.854 58.503 132.5 59C162.361 88.528 191.861 118.361 221 148.5C221.667 171.833 221.667 195.167 221 218.5C217.848 231.333 209.682 238.5 196.5 240C181.504 240.5 166.504 240.667 151.5 240.5C151.5 218.5 151.5 196.5 151.5 174.5C136.167 174.5 120.833 174.5 105.5 174.5C105.5 196.5 105.5 218.5 105.5 240.5C88.4583 240.91 71.4583 240.41 54.5002 239C44.5592 235.647 38.3922 228.813 36.0002 218.5C35.3332 194.833 35.3332 171.167 36.0002 147.5C65.7022 117.965 95.2023 88.299 124.5 58.5Z" fill="#595A59"/>
</svg>
