<?xml version="1.0" standalone="no"?>
<!DOCTYPE svg PUBLIC "-//W3C//DTD SVG 20010904//EN"
 "http://www.w3.org/TR/2001/REC-SVG-20010904/DTD/svg10.dtd">
<svg version="1.0" xmlns="http://www.w3.org/2000/svg"
 width="512.000000pt" height="512.000000pt" viewBox="0 0 512.000000 512.000000"
 preserveAspectRatio="xMidYMid meet">

<g transform="translate(0.000000,512.000000) scale(0.100000,-0.100000)"
fill="#000000" stroke="none">
<path d="M112 3919 c-47 -24 -83 -66 -101 -118 -8 -25 -11 -366 -11 -1245 l0
-1211 24 -52 c17 -36 38 -60 67 -80 l43 -28 2416 -3 2417 -2 44 23 c29 16 54
40 74 72 l30 48 3 1225 2 1225 -24 53 c-17 37 -37 61 -67 81 l-43 28 -2415 3
-2416 2 -43 -21z m4826 -161 c17 -17 17 -2379 0 -2396 -17 -17 -4739 -17
-4756 0 -17 17 -17 2379 0 2396 17 17 4739 17 4756 0z"/>
<path d="M515 3505 c-25 -24 -25 -25 -25 -224 l0 -199 31 -27 32 -26 194 3
195 3 24 28 c23 28 24 32 24 213 0 192 -7 233 -45 248 -9 3 -104 6 -211 6
-194 0 -195 0 -219 -25z m303 -222 l-3 -78 -77 -3 -78 -3 0 81 0 80 80 0 81 0
-3 -77z"/>
<path d="M1192 3507 c-21 -22 -22 -32 -22 -223 0 -187 1 -202 20 -222 30 -31
47 -34 248 -30 242 4 226 -12 230 230 4 201 1 218 -30 248 -20 19 -35 20 -223
20 -198 0 -202 0 -223 -23z m306 -224 l-3 -78 -77 -3 -78 -3 0 81 0 80 80 0
81 0 -3 -77z"/>
<path d="M1852 3507 c-21 -22 -22 -32 -22 -225 0 -270 -16 -255 268 -250 242
4 226 -12 230 230 4 201 1 218 -30 248 -20 19 -35 20 -223 20 -198 0 -202 0
-223 -23z m306 -224 l-3 -78 -77 -3 -78 -3 0 81 0 80 80 0 81 0 -3 -77z"/>
<path d="M2512 3507 c-21 -22 -22 -32 -22 -219 0 -108 3 -204 6 -213 15 -37
56 -45 238 -45 96 0 186 4 200 10 48 18 56 52 56 249 0 179 0 180 -26 210
l-26 31 -202 0 c-199 0 -203 0 -224 -23z m306 -224 l-3 -78 -77 -3 -78 -3 0
81 0 80 80 0 81 0 -3 -77z"/>
<path d="M3172 3507 c-21 -22 -22 -32 -22 -219 0 -108 3 -204 6 -213 15 -37
56 -45 239 -45 262 0 258 -4 253 268 -3 175 -4 181 -27 206 l-24 26 -202 0
c-198 0 -202 0 -223 -23z m306 -224 l-3 -78 -77 -3 -78 -3 0 81 0 80 80 0 81
0 -3 -77z"/>
<path d="M3842 3523 c-34 -14 -42 -59 -42 -247 0 -181 1 -185 24 -213 l24 -28
360 -3 360 -3 31 27 31 26 0 199 c0 199 0 200 -25 224 l-24 25 -363 -1 c-200
0 -369 -3 -376 -6z m618 -243 l0 -80 -242 2 -243 3 -3 78 -3 77 246 0 245 0 0
-80z"/>
<path d="M521 2804 l-31 -26 0 -199 c0 -199 0 -200 25 -224 l24 -25 360 0
c198 0 367 3 376 6 38 15 45 56 45 248 0 181 -1 185 -24 213 l-24 28 -360 3
-360 3 -31 -27z m627 -226 l3 -78 -246 0 -245 0 0 80 0 80 243 -2 242 -3 3
-77z"/>
<path d="M1523 2820 c-47 -19 -54 -56 -51 -255 3 -178 4 -184 27 -209 l24 -26
202 0 c266 0 245 -20 245 242 0 108 -3 204 -6 213 -15 37 -56 45 -241 44 -98
0 -188 -4 -200 -9z m277 -240 l0 -80 -80 0 -80 0 0 73 c0 41 3 77 7 80 3 4 39
7 80 7 l73 0 0 -80z"/>
<path d="M2180 2817 c-44 -22 -50 -49 -50 -244 0 -181 0 -182 26 -212 l26 -31
202 0 c267 0 246 -20 246 242 0 108 -3 204 -6 213 -15 37 -56 45 -241 45 -123
0 -186 -4 -203 -13z m280 -237 l0 -80 -80 0 -80 0 0 73 c0 41 3 77 7 80 3 4
39 7 80 7 l73 0 0 -80z"/>
<path d="M2840 2817 c-44 -22 -50 -49 -50 -240 0 -180 5 -208 39 -234 11 -9
75 -12 217 -13 264 0 244 -20 244 242 0 108 -3 204 -6 213 -15 37 -56 45 -241
45 -123 0 -186 -4 -203 -13z m280 -237 l0 -80 -80 0 -80 0 0 73 c0 41 3 77 7
80 3 4 39 7 80 7 l73 0 0 -80z"/>
<path d="M3500 2817 c-44 -22 -50 -49 -50 -240 0 -180 5 -208 39 -234 11 -9
74 -12 214 -13 197 0 198 0 222 25 25 24 25 25 25 222 -1 207 -3 218 -47 241
-31 17 -370 16 -403 -1z m280 -237 l0 -80 -80 0 -80 0 0 73 c0 41 3 77 7 80 3
4 39 7 80 7 l73 0 0 -80z"/>
<path d="M4184 2820 c-49 -20 -54 -42 -54 -238 0 -190 8 -231 45 -246 9 -3
104 -6 211 -6 262 0 244 -19 244 249 l0 199 -31 26 c-30 26 -31 26 -212 25
-100 0 -192 -4 -203 -9z m276 -240 l0 -80 -80 0 -80 0 0 73 c0 41 3 77 7 80 3
4 39 7 80 7 l73 0 0 -80z"/>
<path d="M515 2095 c-25 -24 -25 -25 -25 -219 0 -107 3 -202 6 -211 15 -38 56
-45 249 -45 l187 0 29 29 29 29 0 190 c0 190 0 190 -26 221 l-26 31 -199 0
c-199 0 -200 0 -224 -25z m305 -225 l0 -80 -80 0 -80 0 0 80 0 80 80 0 80 0 0
-80z"/>
<path d="M1195 2095 c-25 -24 -25 -25 -25 -223 0 -182 2 -202 19 -223 l19 -24
1352 0 1352 0 19 24 c17 21 19 41 19 223 0 198 0 199 -25 223 l-24 25 -1341 0
-1341 0 -24 -25z m2585 -225 l0 -80 -1220 0 -1220 0 0 80 0 80 1220 0 1220 0
0 -80z"/>
<path d="M4156 2089 c-26 -31 -26 -31 -26 -221 l0 -190 29 -29 29 -29 187 0
c193 0 234 7 249 45 3 9 6 104 6 211 0 262 19 244 -249 244 l-199 0 -26 -31z
m304 -219 l0 -80 -80 0 -80 0 0 80 0 80 80 0 80 0 0 -80z"/>
</g>
</svg>
