<svg width="497" height="497" viewBox="0 0 497 497" fill="none" xmlns="http://www.w3.org/2000/svg">
<path opacity="0.992" fill-rule="evenodd" clip-rule="evenodd" d="M352.5 0.500029C409.677 -3.66497 452.843 18.668 482 67.5C497.441 98.548 500.77 130.882 492 164.5C481.103 200.399 458.937 226.899 425.5 244C407.503 252.749 388.503 256.916 368.5 256.5C368.667 309.501 368.5 362.501 368 415.5C365.453 422.882 360.62 428.215 353.5 431.5C352.667 451.825 352.167 472.158 352 492.5C351.626 493.416 351.126 494.25 350.5 495C244.247 496.662 137.914 496.996 31.5002 496C15.3333 491.833 5.16725 481.667 1.00025 465.5C0.33325 336.833 0.33325 208.167 1.00025 79.5C5.16725 63.333 15.3333 53.167 31.5002 49C110.5 48.667 189.5 48.333 268.5 48C290.463 21.518 318.463 5.68403 352.5 0.500029Z" fill="black"/>
<path fill-rule="evenodd" clip-rule="evenodd" d="M368.5 16.4999C373.862 16.4719 379.195 16.8059 384.5 17.4999C384.5 51.8329 384.5 86.1669 384.5 120.5C379.167 120.5 373.833 120.5 368.5 120.5C368.5 85.8329 368.5 51.1669 368.5 16.4999Z" fill="#549A2C"/>
<path fill-rule="evenodd" clip-rule="evenodd" d="M344.5 18.5C347.167 18.5 349.833 18.5 352.5 18.5C352.5 52.5 352.5 86.5 352.5 120.5C320.833 120.5 289.167 120.5 257.5 120.5C260.85 81.951 278.85 52.451 311.5 32C322.154 26.329 333.154 21.829 344.5 18.5Z" fill="#3A5791"/>
<path fill-rule="evenodd" clip-rule="evenodd" d="M400.5 21.5C405.935 22.812 411.101 24.812 416 27.5C416.5 58.498 416.667 89.498 416.5 120.5C411.167 120.5 405.833 120.5 400.5 120.5C400.5 87.5 400.5 54.5 400.5 21.5Z" fill="#549A2C"/>
<path fill-rule="evenodd" clip-rule="evenodd" d="M432.5 37.5C438.058 40.878 443.224 44.878 448 49.5C448.5 73.164 448.667 96.831 448.5 120.5C443.167 120.5 437.833 120.5 432.5 120.5C432.5 92.833 432.5 65.167 432.5 37.5Z" fill="#549A2C"/>
<path fill-rule="evenodd" clip-rule="evenodd" d="M34.5002 64.5C39.1672 64.5 43.8333 64.5 48.5003 64.5C48.5003 181.833 48.5003 299.167 48.5003 416.5C36.8383 414.779 26.3383 417.446 17.0002 424.5C16.3332 310.5 16.3332 196.5 17.0002 82.5C20.3532 73.982 26.1862 67.982 34.5002 64.5Z" fill="#3A5791"/>
<path fill-rule="evenodd" clip-rule="evenodd" d="M328.5 250.5C328.5 263.167 328.5 275.833 328.5 288.5C294.746 288.014 261.08 288.514 227.5 290C226.299 290.903 225.465 292.069 225 293.5C224.5 326.498 224.333 359.498 224.5 392.5C194.5 392.5 164.5 392.5 134.5 392.5C138.132 384.666 136.798 377.833 130.5 372C116.773 365.198 108.106 369.198 104.5 384C104.481 387.024 105.147 389.858 106.5 392.5C92.5 392.5 78.5 392.5 64.5 392.5C64.5 283.167 64.5 173.833 64.5 64.5C128.837 64.167 193.17 64.5 257.5 65.5C237.298 102.393 235.131 140.393 251 179.5C267.16 213.83 292.993 237.497 328.5 250.5Z" fill="#729CD7"/>
<path fill-rule="evenodd" clip-rule="evenodd" d="M464.5 71.5C474.114 86.347 479.114 102.68 479.5 120.5C474.5 120.5 469.5 120.5 464.5 120.5C464.5 104.167 464.5 87.833 464.5 71.5Z" fill="#53972C"/>
<path fill-rule="evenodd" clip-rule="evenodd" d="M112.5 80.5C117.833 80.5 123.167 80.5 128.5 80.5C128.5 91.167 128.5 101.833 128.5 112.5C139.167 112.5 149.833 112.5 160.5 112.5C160.5 117.833 160.5 123.167 160.5 128.5C149.833 128.5 139.167 128.5 128.5 128.5C128.5 139.167 128.5 149.833 128.5 160.5C123.167 160.5 117.833 160.5 112.5 160.5C112.5 149.833 112.5 139.167 112.5 128.5C101.833 128.5 91.167 128.5 80.5 128.5C80.5 123.167 80.5 117.833 80.5 112.5C91.167 112.5 101.833 112.5 112.5 112.5C112.5 101.833 112.5 91.167 112.5 80.5Z" fill="black"/>
<path fill-rule="evenodd" clip-rule="evenodd" d="M257.5 136.5C331.5 136.5 405.5 136.5 479.5 136.5C475.134 181.409 452.468 213.242 411.5 232C368.181 248.195 328.848 241.528 293.5 212C271.693 191.55 259.693 166.384 257.5 136.5Z" fill="#F4B83F"/>
<path fill-rule="evenodd" clip-rule="evenodd" d="M357.5 152.5C377.167 152.5 396.833 152.5 416.5 152.5C416.5 157.833 416.5 163.167 416.5 168.5C399.487 168.167 382.487 168.501 365.5 169.5C357.725 186.717 350.225 204.05 343 221.5C338.667 225.5 334.333 225.5 330 221.5C324.636 213.635 319.47 205.635 314.5 197.5C318.104 194.025 322.104 191.025 326.5 188.5C329.806 191.767 332.639 195.433 335 199.5C340.667 186.167 346.333 172.833 352 159.5C352.967 156.379 354.8 154.046 357.5 152.5Z" fill="#030302"/>
<path fill-rule="evenodd" clip-rule="evenodd" d="M372.5 179.5C373.552 179.351 374.552 179.517 375.5 180C378.349 183.016 381.349 185.85 384.5 188.5C387.864 185.299 391.364 182.299 395 179.5C398.62 182.117 401.953 185.117 405 188.5C405.667 189.5 405.667 190.5 405 191.5C401.984 194.349 399.15 197.349 396.5 200.5C399.701 203.864 402.701 207.364 405.5 211C402.883 214.62 399.883 217.953 396.5 221C395.5 221.667 394.5 221.667 393.5 221C390.651 217.984 387.651 215.15 384.5 212.5C381.136 215.701 377.636 218.701 374 221.5C370.38 218.883 367.047 215.883 364 212.5C363.333 211.5 363.333 210.5 364 209.5C367.016 206.651 369.85 203.651 372.5 200.5C369.299 197.136 366.299 193.636 363.5 190C366.322 186.345 369.322 182.845 372.5 179.5Z" fill="#0C0A08"/>
<path fill-rule="evenodd" clip-rule="evenodd" d="M80.5 184.5C107.167 184.5 133.833 184.5 160.5 184.5C160.5 189.833 160.5 195.167 160.5 200.5C133.833 200.5 107.167 200.5 80.5 200.5C80.5 195.167 80.5 189.833 80.5 184.5Z" fill="black"/>
<path fill-rule="evenodd" clip-rule="evenodd" d="M84.5002 218.5C96.4882 227.485 108.488 236.485 120.5 245.5C132.237 237.272 143.57 228.439 154.5 219C155.332 218.312 155.998 218.479 156.5 219.5C159 222.5 161.5 225.5 164 228.5C164.667 229.5 164.667 230.5 164 231.5C153.741 239.714 143.575 248.047 133.5 256.5C143.575 264.953 153.741 273.286 164 281.5C164.667 282.5 164.667 283.5 164 284.5C161.354 287.98 158.521 291.314 155.5 294.5C144.093 285.085 132.427 276.085 120.5 267.5C108.763 275.728 97.4303 284.561 86.5002 294C85.6682 294.688 85.0022 294.521 84.5002 293.5C82.0002 290.5 79.5002 287.5 77.0002 284.5C76.3332 283.5 76.3332 282.5 77.0002 281.5C87.2592 273.286 97.4253 264.953 107.5 256.5C97.4253 248.047 87.2592 239.714 77.0002 231.5C76.3332 230.5 76.3332 229.5 77.0002 228.5C79.7612 225.286 82.2612 221.953 84.5002 218.5Z" fill="#030404"/>
<path fill-rule="evenodd" clip-rule="evenodd" d="M328.5 250.5C336.517 252.181 344.517 253.848 352.5 255.5C352.667 307.501 352.5 359.501 352 411.5C351.535 412.931 350.701 414.097 349.5 415C254.582 416.495 159.582 416.995 64.5 416.5C64.5 408.5 64.5 400.5 64.5 392.5C78.5 392.5 92.5 392.5 106.5 392.5C115.757 403.106 125.091 403.106 134.5 392.5C164.5 392.5 194.5 392.5 224.5 392.5C224.625 396.063 226.292 398.563 229.5 400C264.227 400.98 298.894 400.646 333.5 399C334.893 397.829 335.727 396.329 336 394.5C336.667 360.833 336.667 327.167 336 293.5C334.563 290.292 332.063 288.625 328.5 288.5C328.5 275.833 328.5 263.167 328.5 250.5Z" fill="#5D86C9"/>
<path fill-rule="evenodd" clip-rule="evenodd" d="M328.5 288.5C332.063 288.625 334.563 290.292 336 293.5C336.667 327.167 336.667 360.833 336 394.5C335.727 396.329 334.893 397.829 333.5 399C298.894 400.646 264.227 400.98 229.5 400C226.292 398.563 224.625 396.063 224.5 392.5C224.333 359.498 224.5 326.498 225 293.5C225.465 292.069 226.299 290.903 227.5 290C261.08 288.514 294.746 288.014 328.5 288.5Z" fill="black"/>
<path fill-rule="evenodd" clip-rule="evenodd" d="M115.5 304.5C129.875 303.71 136.708 310.376 136 324.5C131.562 334.636 124.062 338.136 113.5 335C105.45 329.739 102.95 322.573 106 313.5C108.406 309.592 111.572 306.592 115.5 304.5Z" fill="#030404"/>
<path fill-rule="evenodd" clip-rule="evenodd" d="M304.5 304.5C304.667 321.837 304.5 339.17 304 356.5C302.167 362.333 298.333 366.167 292.5 368C275.17 368.5 257.837 368.667 240.5 368.5C240.5 347.167 240.5 325.833 240.5 304.5C261.833 304.5 283.167 304.5 304.5 304.5Z" fill="#E1E6F5"/>
<path fill-rule="evenodd" clip-rule="evenodd" d="M304.5 304.5C309.833 304.5 315.167 304.5 320.5 304.5C320.5 331.167 320.5 357.833 320.5 384.5C293.833 384.5 267.167 384.5 240.5 384.5C240.5 379.167 240.5 373.833 240.5 368.5C257.837 368.667 275.17 368.5 292.5 368C298.333 366.167 302.167 362.333 304 356.5C304.5 339.17 304.667 321.837 304.5 304.5Z" fill="#C8CDED"/>
<path fill-rule="evenodd" clip-rule="evenodd" d="M80.5 344.5C107.167 344.5 133.833 344.5 160.5 344.5C160.5 349.833 160.5 355.167 160.5 360.5C133.833 360.5 107.167 360.5 80.5 360.5C80.5 355.167 80.5 349.833 80.5 344.5Z" fill="black"/>
<path fill-rule="evenodd" clip-rule="evenodd" d="M134.5 392.5C125.091 403.106 115.757 403.106 106.5 392.5C105.147 389.858 104.481 387.024 104.5 384C108.106 369.198 116.773 365.198 130.5 372C136.798 377.833 138.132 384.666 134.5 392.5Z" fill="#030404"/>
<path fill-rule="evenodd" clip-rule="evenodd" d="M34.5 432.5C135.167 432.5 235.833 432.5 336.5 432.5C336.5 448.5 336.5 464.5 336.5 480.5C235.833 480.667 135.166 480.5 34.5 480C17.697 472.591 12.864 460.424 20 443.5C23.951 438.466 28.784 434.799 34.5 432.5Z" fill="#CBCBCB"/>
<path fill-rule="evenodd" clip-rule="evenodd" d="M48.5 448.5C139.167 448.5 229.833 448.5 320.5 448.5C320.5 453.833 320.5 459.167 320.5 464.5C229.833 464.5 139.167 464.5 48.5 464.5C48.5 459.167 48.5 453.833 48.5 448.5Z" fill="black"/>
</svg>
