<svg width="982" height="979" viewBox="0 0 982 979" fill="none" xmlns="http://www.w3.org/2000/svg">
<path fill-rule="evenodd" clip-rule="evenodd" d="M468.5 0.49999C614.806 -3.14701 739.64 46.187 843 148.5C949 261.83 994 396.164 978 551.5C963.08 662.008 916.74 756.67 839 835.5C743.02 930.79 627.021 978.46 491 978.5C361.641 978.96 249.808 935.46 155.5 848C66.0901 762.67 14.9231 658.173 2.00006 534.5C-8.79894 379.516 40.3681 247.349 149.5 138C238.802 53.366 345.135 7.53199 468.5 0.49999ZM461.5 37.5C590.602 32.245 702.935 72.412 798.5 158C901.46 256.139 949.63 376.639 943 519.5C938.56 595.805 915.9 666.138 875 730.5C857.13 759.2 836.13 785.54 812 809.5C806.16 800.49 800.83 791.16 796 781.5C788.53 763.42 780.86 745.42 773 727.5C766.05 716.132 757.55 705.965 747.5 697C742.28 693.221 736.61 690.221 730.5 688C702.212 679.511 673.879 671.178 645.5 663C628.898 658.1 612.565 652.433 596.5 646C589.154 642.323 582.654 637.489 577 631.5C570.694 622.888 566.027 613.555 563 603.5C607.595 570.707 635.928 527.04 648 472.5C658.217 427.952 658.883 383.286 650 338.5C635.744 279.245 598.577 244.411 538.5 234C493.94 226.097 450.273 229.43 407.5 244C373.642 259.861 350.142 285.361 337 320.5C326.769 354.454 323.269 389.12 326.5 424.5C328.998 479.527 347.498 528.193 382 570.5C392.811 582.652 404.811 593.319 418 602.5C411.056 627.78 394.889 644.28 369.5 652C331.486 664.42 293.152 675.754 254.5 686C247.276 688.279 240.609 691.612 234.5 696C220.038 708.766 208.871 723.933 201 741.5C193.713 765.41 183.213 787.74 169.5 808.5C107.396 746.33 66.5621 671.993 47.0001 585.5C21.7251 454.527 47.0581 334.527 123 225.5C208.017 113.558 320.85 50.891 461.5 37.5Z" fill="#595A59"/>
</svg>
