<svg width="513" height="444" viewBox="0 0 513 444" fill="none" xmlns="http://www.w3.org/2000/svg">
<path opacity="0.987" fill-rule="evenodd" clip-rule="evenodd" d="M184.5 0.5C192.404 1.119 199.404 3.953 205.5 9C274.081 77.915 342.915 146.415 412 214.5C415.208 219.812 415.208 225.146 412 230.5C369.919 272.915 327.585 314.915 285 356.5C284.333 375.833 284.333 395.167 285 414.5C349.068 350.266 413.234 286.266 477.5 222.5C411.928 157.428 346.428 92.095 281 26.5C277.165 14.537 281.331 7.537 293.5 5.5C296.795 5.295 299.795 6.128 302.5 8C372.36 76.86 441.86 146.027 511 215.5C513.23 220.686 512.89 225.686 510 230.5C441.193 299.64 372.027 368.473 302.5 437C290.606 445.997 278.606 446.331 266.5 438C260.905 433.409 257.405 427.576 256 420.5C255.667 409.167 255.333 397.833 255 386.5C237.472 404.362 219.638 421.862 201.5 439C186.217 447.002 173.05 444.502 162 431.5C160.107 428.382 158.774 425.049 158 421.5C157.5 389.168 157.333 356.835 157.5 324.5C108.166 324.667 58.832 324.5 9.5 324C0.503002 318.851 -1.664 311.684 3 302.5C4.961 299.865 7.461 298.031 10.5 297C63.5 296.667 116.5 296.333 169.5 296C194.333 271.833 219.167 247.667 244 223.5C244.667 222.833 244.667 222.167 244 221.5C216 194.167 188 166.833 160 139.5C159.333 138.167 158.667 136.833 158 135.5C157.333 97.833 157.333 60.167 158 22.5C162.472 9.858 171.305 2.524 184.5 0.5ZM185.5 30.5C250.478 94.145 315.145 158.145 379.5 222.5C315.207 286.626 250.707 350.626 186 414.5C185.333 383.167 185.333 351.833 186 320.5C216.667 290.5 247.333 260.5 278 230.5C281.333 225.167 281.333 219.833 278 214.5C247.333 184.5 216.667 154.5 186 124.5C185.5 93.168 185.333 61.835 185.5 30.5Z" fill="#595A59"/>
</svg>
