<svg width="417" height="513" viewBox="0 0 417 513" fill="none" xmlns="http://www.w3.org/2000/svg">
<path fill-rule="evenodd" clip-rule="evenodd" d="M97.5003 0.500019C192.167 0.333019 286.834 0.500019 381.5 1.00002C400.571 4.40502 412.071 15.572 416 34.5C416.667 161.5 416.667 288.5 416 415.5C411.901 433.1 401.068 443.766 383.5 447.5C379.806 465.194 369.14 475.86 351.5 479.5C347.648 497.518 336.648 508.35 318.5 512C223.833 512.67 129.167 512.67 34.5003 512C16.4513 508.28 5.28425 497.451 1.00025 479.5C0.33325 352.167 0.33325 224.833 1.00025 97.5C5.09925 79.9 15.9323 69.234 33.5003 65.5C37.1673 47.833 47.8333 37.167 65.5003 33.5C69.4163 15.918 80.0833 4.91802 97.5003 0.500019Z" fill="#3F474F"/>
<path fill-rule="evenodd" clip-rule="evenodd" d="M397.5 29.5C398.892 32.007 399.892 34.673 400.5 37.5C399.167 38.167 399.167 38.833 400.5 39.5C400.5 39.833 400.5 40.167 400.5 40.5C399.167 47.833 399.167 55.167 400.5 62.5C400.5 62.833 400.5 63.167 400.5 63.5C399.167 64.5 399.167 65.5 400.5 66.5C400.5 66.833 400.5 67.167 400.5 67.5C399.167 68.5 399.167 69.5 400.5 70.5C400.5 70.833 400.5 71.167 400.5 71.5C399.167 72.5 399.167 73.5 400.5 74.5C400.5 74.833 400.5 75.167 400.5 75.5C399.167 81.167 399.167 86.833 400.5 92.5C400.5 92.833 400.5 93.167 400.5 93.5C399.167 94.5 399.167 95.5 400.5 96.5C400.5 96.833 400.5 97.167 400.5 97.5C399.167 98.5 399.167 99.5 400.5 100.5C400.5 100.833 400.5 101.167 400.5 101.5C399.167 102.5 399.167 103.5 400.5 104.5C400.5 104.833 400.5 105.167 400.5 105.5C399.167 111.167 399.167 116.833 400.5 122.5C400.5 122.833 400.5 123.167 400.5 123.5C399.167 124.5 399.167 125.5 400.5 126.5C400.5 126.833 400.5 127.167 400.5 127.5C399.167 128.5 399.167 129.5 400.5 130.5C400.5 130.833 400.5 131.167 400.5 131.5C399.167 132.5 399.167 133.5 400.5 134.5C400.5 134.833 400.5 135.167 400.5 135.5C399.167 141.167 399.167 146.833 400.5 152.5C400.5 152.833 400.5 153.167 400.5 153.5C399.167 154.5 399.167 155.5 400.5 156.5C400.5 156.833 400.5 157.167 400.5 157.5C399.167 158.5 399.167 159.5 400.5 160.5C400.5 160.833 400.5 161.167 400.5 161.5C399.167 162.5 399.167 163.5 400.5 164.5C400.5 164.833 400.5 165.167 400.5 165.5C399.167 171.167 399.167 176.833 400.5 182.5C400.5 182.833 400.5 183.167 400.5 183.5C399.167 184.5 399.167 185.5 400.5 186.5C400.5 186.833 400.5 187.167 400.5 187.5C399.167 188.5 399.167 189.5 400.5 190.5C400.5 190.833 400.5 191.167 400.5 191.5C399.167 192.5 399.167 193.5 400.5 194.5C400.5 194.833 400.5 195.167 400.5 195.5C399.167 201.167 399.167 206.833 400.5 212.5C400.5 212.833 400.5 213.167 400.5 213.5C399.167 214.5 399.167 215.5 400.5 216.5C400.5 216.833 400.5 217.167 400.5 217.5C399.167 218.5 399.167 219.5 400.5 220.5C400.5 220.833 400.5 221.167 400.5 221.5C399.167 222.5 399.167 223.5 400.5 224.5C400.5 224.833 400.5 225.167 400.5 225.5C399.167 231.167 399.167 236.833 400.5 242.5C400.5 242.833 400.5 243.167 400.5 243.5C399.167 244.5 399.167 245.5 400.5 246.5C400.5 246.833 400.5 247.167 400.5 247.5C399.167 248.5 399.167 249.5 400.5 250.5C400.5 250.833 400.5 251.167 400.5 251.5C399.167 252.5 399.167 253.5 400.5 254.5C400.5 254.833 400.5 255.167 400.5 255.5C399.167 261.167 399.167 266.833 400.5 272.5C400.5 272.833 400.5 273.167 400.5 273.5C399.167 274.5 399.167 275.5 400.5 276.5C400.5 276.833 400.5 277.167 400.5 277.5C399.167 278.5 399.167 279.5 400.5 280.5C400.5 280.833 400.5 281.167 400.5 281.5C399.167 282.5 399.167 283.5 400.5 284.5C400.5 284.833 400.5 285.167 400.5 285.5C399.167 291.167 399.167 296.833 400.5 302.5C400.5 302.833 400.5 303.167 400.5 303.5C399.167 304.5 399.167 305.5 400.5 306.5C400.5 306.833 400.5 307.167 400.5 307.5C399.167 308.5 399.167 309.5 400.5 310.5C400.5 310.833 400.5 311.167 400.5 311.5C399.167 312.5 399.167 313.5 400.5 314.5C400.5 314.833 400.5 315.167 400.5 315.5C399.167 321.167 399.167 326.833 400.5 332.5C400.5 332.833 400.5 333.167 400.5 333.5C399.167 334.5 399.167 335.5 400.5 336.5C400.5 336.833 400.5 337.167 400.5 337.5C399.167 338.5 399.167 339.5 400.5 340.5C400.5 340.833 400.5 341.167 400.5 341.5C399.167 342.5 399.167 343.5 400.5 344.5C400.5 344.833 400.5 345.167 400.5 345.5C399.167 351.167 399.167 356.833 400.5 362.5C400.5 362.833 400.5 363.167 400.5 363.5C399.167 364.5 399.167 365.5 400.5 366.5C400.5 366.833 400.5 367.167 400.5 367.5C399.167 368.5 399.167 369.5 400.5 370.5C400.5 370.833 400.5 371.167 400.5 371.5C399.167 372.5 399.167 373.5 400.5 374.5C400.5 374.833 400.5 375.167 400.5 375.5C399.167 381.167 399.167 386.833 400.5 392.5C400.5 392.833 400.5 393.167 400.5 393.5C399.167 394.5 399.167 395.5 400.5 396.5C400.5 396.833 400.5 397.167 400.5 397.5C399.167 398.5 399.167 399.5 400.5 400.5C400.5 400.833 400.5 401.167 400.5 401.5C399.167 402.5 399.167 403.5 400.5 404.5C400.5 404.833 400.5 405.167 400.5 405.5C399.167 407.833 399.167 410.167 400.5 412.5C400.167 413.167 399.833 413.833 399.5 414.5C398.167 415.167 398.167 415.833 399.5 416.5C399.082 417.222 398.416 417.722 397.5 418C397.728 418.399 398.062 418.565 398.5 418.5C398.082 419.222 397.416 419.722 396.5 420C396.728 420.399 397.062 420.565 397.5 420.5C396.833 421.167 396.167 421.833 395.5 422.5C394.833 422.5 394.5 422.833 394.5 423.5C393.833 423.5 393.5 423.833 393.5 424.5C392.833 424.5 392.5 424.833 392.5 425.5C391.833 425.5 391.5 425.833 391.5 426.5C390.833 426.5 390.5 426.833 390.5 427.5C389.833 428.167 389.167 428.833 388.5 429.5C388.565 429.062 388.399 428.728 388 428.5C387.722 429.416 387.222 430.082 386.5 430.5C386.565 430.062 386.399 429.728 386 429.5C385.667 430.167 385.333 430.833 385 431.5C384.667 318.833 384.333 206.167 384 93.5C364.348 72.681 344.181 52.348 323.5 32.5C322.893 32.624 322.56 32.957 322.5 33.5C322.167 33.5 321.833 33.5 321.5 33.5C241.833 32.833 162.167 32.167 82.5 31.5C85.977 23.588 91.977 18.755 100.5 17C193.5 16.333 286.5 16.333 379.5 17C387.523 18.492 393.523 22.658 397.5 29.5Z" fill="#9CE7F6"/>
<path fill-rule="evenodd" clip-rule="evenodd" d="M82.5 31.5C162.167 32.167 241.833 32.833 321.5 33.5C241.497 33.833 161.497 33.5 81.5 32.5C81.624 31.893 81.957 31.56 82.5 31.5Z" fill="#8D8888"/>
<path fill-rule="evenodd" clip-rule="evenodd" d="M312.5 49.5C311.167 53.833 311.167 58.167 312.5 62.5C312.5 62.833 312.5 63.167 312.5 63.5C311.167 64.5 311.167 65.5 312.5 66.5C312.5 66.833 312.5 67.167 312.5 67.5C311.167 68.5 311.167 69.5 312.5 70.5C312.5 70.833 312.5 71.167 312.5 71.5C311.167 72.5 311.167 73.5 312.5 74.5C312.5 74.833 312.5 75.167 312.5 75.5C311.167 81.167 311.167 86.833 312.5 92.5C312.5 92.833 312.5 93.167 312.5 93.5C311.167 94.5 311.167 95.5 312.5 96.5C312.797 99.559 314.13 102.059 316.5 104C334.005 104.168 351.338 104.668 368.5 105.5C367.167 111.167 367.167 116.833 368.5 122.5C368.5 122.833 368.5 123.167 368.5 123.5C367.167 124.5 367.167 125.5 368.5 126.5C368.5 126.833 368.5 127.167 368.5 127.5C367.167 128.5 367.167 129.5 368.5 130.5C368.5 130.833 368.5 131.167 368.5 131.5C367.167 132.5 367.167 133.5 368.5 134.5C368.5 134.833 368.5 135.167 368.5 135.5C367.167 141.167 367.167 146.833 368.5 152.5C368.5 152.833 368.5 153.167 368.5 153.5C367.167 154.5 367.167 155.5 368.5 156.5C368.5 156.833 368.5 157.167 368.5 157.5C367.167 158.5 367.167 159.5 368.5 160.5C368.5 160.833 368.5 161.167 368.5 161.5C367.167 162.5 367.167 163.5 368.5 164.5C368.5 164.833 368.5 165.167 368.5 165.5C367.167 171.167 367.167 176.833 368.5 182.5C368.5 182.833 368.5 183.167 368.5 183.5C367.167 184.5 367.167 185.5 368.5 186.5C368.5 186.833 368.5 187.167 368.5 187.5C367.167 188.5 367.167 189.5 368.5 190.5C368.5 190.833 368.5 191.167 368.5 191.5C367.167 192.5 367.167 193.5 368.5 194.5C368.5 194.833 368.5 195.167 368.5 195.5C367.167 201.167 367.167 206.833 368.5 212.5C368.5 212.833 368.5 213.167 368.5 213.5C367.167 214.5 367.167 215.5 368.5 216.5C368.5 216.833 368.5 217.167 368.5 217.5C367.167 218.5 367.167 219.5 368.5 220.5C368.5 220.833 368.5 221.167 368.5 221.5C367.167 222.5 367.167 223.5 368.5 224.5C368.5 224.833 368.5 225.167 368.5 225.5C367.167 231.167 367.167 236.833 368.5 242.5C368.5 242.833 368.5 243.167 368.5 243.5C367.167 244.5 367.167 245.5 368.5 246.5C368.5 246.833 368.5 247.167 368.5 247.5C367.167 248.5 367.167 249.5 368.5 250.5C368.5 250.833 368.5 251.167 368.5 251.5C367.167 252.5 367.167 253.5 368.5 254.5C368.5 254.833 368.5 255.167 368.5 255.5C367.167 261.167 367.167 266.833 368.5 272.5C368.5 272.833 368.5 273.167 368.5 273.5C367.167 274.5 367.167 275.5 368.5 276.5C368.5 276.833 368.5 277.167 368.5 277.5C367.167 278.5 367.167 279.5 368.5 280.5C368.5 280.833 368.5 281.167 368.5 281.5C367.167 282.5 367.167 283.5 368.5 284.5C368.5 284.833 368.5 285.167 368.5 285.5C367.167 291.167 367.167 296.833 368.5 302.5C368.5 302.833 368.5 303.167 368.5 303.5C367.167 304.5 367.167 305.5 368.5 306.5C368.5 306.833 368.5 307.167 368.5 307.5C367.167 308.5 367.167 309.5 368.5 310.5C368.5 310.833 368.5 311.167 368.5 311.5C367.167 312.5 367.167 313.5 368.5 314.5C368.5 314.833 368.5 315.167 368.5 315.5C367.167 321.167 367.167 326.833 368.5 332.5C368.5 332.833 368.5 333.167 368.5 333.5C367.167 334.5 367.167 335.5 368.5 336.5C368.5 336.833 368.5 337.167 368.5 337.5C367.167 338.5 367.167 339.5 368.5 340.5C368.5 340.833 368.5 341.167 368.5 341.5C367.167 342.5 367.167 343.5 368.5 344.5C368.5 344.833 368.5 345.167 368.5 345.5C367.167 351.167 367.167 356.833 368.5 362.5C368.5 362.833 368.5 363.167 368.5 363.5C367.167 364.5 367.167 365.5 368.5 366.5C368.5 366.833 368.5 367.167 368.5 367.5C367.167 368.5 367.167 369.5 368.5 370.5C368.5 370.833 368.5 371.167 368.5 371.5C367.167 372.5 367.167 373.5 368.5 374.5C368.5 374.833 368.5 375.167 368.5 375.5C367.167 381.167 367.167 386.833 368.5 392.5C368.5 392.833 368.5 393.167 368.5 393.5C367.167 394.5 367.167 395.5 368.5 396.5C368.5 396.833 368.5 397.167 368.5 397.5C367.167 398.5 367.167 399.5 368.5 400.5C368.5 400.833 368.5 401.167 368.5 401.5C367.167 402.5 367.167 403.5 368.5 404.5C368.5 404.833 368.5 405.167 368.5 405.5C367.167 411.167 367.167 416.833 368.5 422.5C368.5 422.833 368.5 423.167 368.5 423.5C367.167 424.5 367.167 425.5 368.5 426.5C368.5 426.833 368.5 427.167 368.5 427.5C367.167 428.5 367.167 429.5 368.5 430.5C368.5 430.833 368.5 431.167 368.5 431.5C367.167 432.5 367.167 433.5 368.5 434.5C368.5 434.833 368.5 435.167 368.5 435.5C367.167 438.5 367.167 441.5 368.5 444.5C368.167 445.167 367.833 445.833 367.5 446.5C366.167 447.167 366.167 447.833 367.5 448.5C367.082 449.222 366.416 449.722 365.5 450C365.728 450.399 366.062 450.565 366.5 450.5C366.082 451.222 365.416 451.722 364.5 452C364.728 452.399 365.062 452.565 365.5 452.5C364.833 453.167 364.167 453.833 363.5 454.5C362.833 454.5 362.5 454.833 362.5 455.5C361.833 455.5 361.5 455.833 361.5 456.5C360.833 456.5 360.5 456.833 360.5 457.5C359.833 457.5 359.5 457.833 359.5 458.5C358.833 458.5 358.5 458.833 358.5 459.5C357.833 460.167 357.167 460.833 356.5 461.5C356.565 461.062 356.399 460.728 356 460.5C355.722 461.416 355.222 462.082 354.5 462.5C354.565 462.062 354.399 461.728 354 461.5C353.667 462.167 353.333 462.833 353 463.5C352.667 364.167 352.333 264.833 352 165.5C319.298 131.298 285.798 97.964 251.5 65.5C251.5 64.833 251.167 64.5 250.5 64.5C183.665 64.832 116.998 64.499 50.5 63.5C53.977 55.588 59.977 50.755 68.5 49C150.001 48.168 231.334 48.334 312.5 49.5Z" fill="#9CE7F6"/>
<path fill-rule="evenodd" clip-rule="evenodd" d="M328.5 60.5C337.965 69.464 347.298 78.631 356.5 88C347.173 88.5 337.839 88.666 328.5 88.5C328.5 79.167 328.5 69.833 328.5 60.5Z" fill="#A0ECF9"/>
<path fill-rule="evenodd" clip-rule="evenodd" d="M50.5 63.5C116.998 64.499 183.665 64.832 250.5 64.5C250.5 64.833 250.5 65.167 250.5 65.5C183.497 65.833 116.497 65.5 49.5 64.5C49.624 63.893 49.957 63.56 50.5 63.5Z" fill="#8D8888"/>
<path fill-rule="evenodd" clip-rule="evenodd" d="M38.5002 80.5C105.331 81.499 172.331 81.832 239.5 81.5C239.169 111.338 239.502 141.005 240.5 170.5C241.861 173.194 243.861 175.194 246.5 176.5C275.426 177.499 305.093 177.833 335.5 177.5C335.167 276.668 335.501 375.668 336.5 474.5C334.833 487.5 327.5 494.833 314.5 496.5C286.598 495.825 258.598 495.159 230.5 494.5C226.136 481.408 222.136 468.075 218.5 454.5C222.14 452.525 225.14 449.858 227.5 446.5C229.733 443.61 231.066 440.277 231.5 436.5C232.833 435.5 232.833 434.5 231.5 433.5C231.5 432.5 231.5 431.5 231.5 430.5C232.833 429.167 232.833 427.833 231.5 426.5C231.473 424.801 230.806 423.467 229.5 422.5C230.833 422.167 230.833 421.833 229.5 421.5C229.672 420.508 229.338 419.842 228.5 419.5C228.5 418.833 228.167 418.5 227.5 418.5C227.672 417.508 227.338 416.842 226.5 416.5C226.5 415.833 226.167 415.5 225.5 415.5C225.5 414.833 225.167 414.5 224.5 414.5C224.167 413.167 223.833 413.167 223.5 414.5C222.833 413.833 222.167 413.167 221.5 412.5C221.167 411.167 220.833 411.167 220.5 412.5C219.778 411.449 218.778 410.782 217.5 410.5C217.167 409.167 216.833 409.167 216.5 410.5C215.265 410.279 214.265 409.612 213.5 408.5C212.893 408.624 212.56 408.957 212.5 409.5C211.414 409.38 210.747 408.713 210.5 407.5C214.681 389.111 219.014 370.778 223.5 352.5C224.833 352.167 224.833 351.833 223.5 351.5C223.557 350.391 223.89 349.391 224.5 348.5C225.833 348.167 225.833 347.833 224.5 347.5C225.833 342.167 227.167 336.833 228.5 331.5C229.833 331.167 229.833 330.833 228.5 330.5C229.833 325.167 231.167 319.833 232.5 314.5C233.833 314.167 233.833 313.833 232.5 313.5C232.557 312.391 232.89 311.391 233.5 310.5C234.833 310.167 234.833 309.833 233.5 309.5C233.833 308.167 234.167 306.833 234.5 305.5C235.404 304.791 235.737 303.791 235.5 302.5C236.451 301.081 236.784 299.415 236.5 297.5C237.434 296.432 237.768 295.099 237.5 293.5C238.833 293.167 238.833 292.833 237.5 292.5C238.015 290.106 238.681 287.772 239.5 285.5C241.312 280.993 240.312 277.16 236.5 274C227.784 273.132 219.118 271.799 210.5 270C203.66 267.265 197.993 263.098 193.5 257.5C190.293 253.971 187.96 249.971 186.5 245.5C186.737 244.209 186.404 243.209 185.5 242.5C185.443 241.391 185.11 240.391 184.5 239.5C185.833 238.167 185.833 236.833 184.5 235.5C184.634 233.708 184.301 232.042 183.5 230.5C184.833 230.167 184.833 229.833 183.5 229.5C182.049 226.732 179.716 225.065 176.5 224.5C141.833 224.5 107.167 224.5 72.5003 224.5C72.5003 229.833 72.5003 235.167 72.5003 240.5C104.167 240.5 135.833 240.5 167.5 240.5C163.314 257.519 152.647 268.019 135.5 272C129.5 272.333 123.5 272.667 117.5 273C115.667 274.167 114.167 275.667 113 277.5C113.005 282.874 113.672 288.208 115 293.5C124.058 331.511 133.225 369.511 142.5 407.5C122.518 414.133 116.684 427.133 125 446.5C127.727 449.731 130.894 452.397 134.5 454.5C130.67 467.98 126.67 481.314 122.5 494.5C94.4023 495.159 66.4023 495.825 38.5002 496.5C27.8772 494.717 20.7112 488.717 17.0002 478.5C16.3332 351.833 16.3332 225.167 17.0002 98.5C20.7112 88.283 27.8772 82.283 38.5002 80.5Z" fill="#9CE7F8"/>
<path fill-rule="evenodd" clip-rule="evenodd" d="M38.5 80.5C105.833 80.5 173.167 80.5 240.5 80.5C240.5 110.5 240.5 140.5 240.5 170.5C239.502 141.005 239.169 111.338 239.5 81.5C172.331 81.832 105.331 81.499 38.5 80.5Z" fill="#AEFEFE"/>
<path fill-rule="evenodd" clip-rule="evenodd" d="M258.5 94.5C257.503 115.994 257.169 137.66 257.5 159.5C279.34 159.831 301.006 159.497 322.5 158.5C323.289 158.783 323.956 159.283 324.5 160C301.836 160.5 279.169 160.667 256.5 160.5C256.333 137.831 256.5 115.164 257 92.5C257.717 93.044 258.217 93.711 258.5 94.5Z" fill="#AEFEFE"/>
<path fill-rule="evenodd" clip-rule="evenodd" d="M258.5 94.5C280.167 115.5 301.5 136.833 322.5 158.5C301.006 159.497 279.34 159.831 257.5 159.5C257.169 137.66 257.503 115.994 258.5 94.5Z" fill="#9CE8F8"/>
<path fill-rule="evenodd" clip-rule="evenodd" d="M32.5 128.5C61.833 128.5 91.167 128.5 120.5 128.5C120.5 133.833 120.5 139.167 120.5 144.5C91.167 144.5 61.833 144.5 32.5 144.5C32.5 139.167 32.5 133.833 32.5 128.5Z" fill="#29292E"/>
<path fill-rule="evenodd" clip-rule="evenodd" d="M136.5 128.5C165.833 128.5 195.167 128.5 224.5 128.5C224.5 133.833 224.5 139.167 224.5 144.5C195.167 144.5 165.833 144.5 136.5 144.5C136.5 139.167 136.5 133.833 136.5 128.5Z" fill="#29292E"/>
<path fill-rule="evenodd" clip-rule="evenodd" d="M33.5 129.5C62.167 129.5 90.833 129.5 119.5 129.5C119.5 134.167 119.5 138.833 119.5 143.5C90.833 143.5 62.167 143.5 33.5 143.5C33.5 138.833 33.5 134.167 33.5 129.5Z" fill="#404A51"/>
<path fill-rule="evenodd" clip-rule="evenodd" d="M137.5 129.5C166.167 129.5 194.833 129.5 223.5 129.5C223.5 134.167 223.5 138.833 223.5 143.5C194.833 143.5 166.167 143.5 137.5 143.5C137.5 138.833 137.5 134.167 137.5 129.5Z" fill="#404A51"/>
<path fill-rule="evenodd" clip-rule="evenodd" d="M32.5 160.5C96.5 160.5 160.5 160.5 224.5 160.5C224.5 165.833 224.5 171.167 224.5 176.5C160.5 176.5 96.5 176.5 32.5 176.5C32.5 171.167 32.5 165.833 32.5 160.5Z" fill="#29292E"/>
<path fill-rule="evenodd" clip-rule="evenodd" d="M33.5 161.5C96.833 161.5 160.167 161.5 223.5 161.5C223.5 166.167 223.5 170.833 223.5 175.5C160.167 175.5 96.833 175.5 33.5 175.5C33.5 170.833 33.5 166.167 33.5 161.5Z" fill="#404A51"/>
<path fill-rule="evenodd" clip-rule="evenodd" d="M246.5 176.5C276.5 176.5 306.5 176.5 336.5 176.5C336.5 275.833 336.5 375.167 336.5 474.5C335.501 375.668 335.167 276.668 335.5 177.5C305.093 177.833 275.426 177.499 246.5 176.5Z" fill="#AEFEFE"/>
<path fill-rule="evenodd" clip-rule="evenodd" d="M32.5 192.5C43.167 192.5 53.833 192.5 64.5 192.5C64.5 197.833 64.5 203.167 64.5 208.5C53.833 208.5 43.167 208.5 32.5 208.5C32.5 203.167 32.5 197.833 32.5 192.5Z" fill="#29292E"/>
<path fill-rule="evenodd" clip-rule="evenodd" d="M80.5 192.5C85.833 192.5 91.167 192.5 96.5 192.5C96.5 197.833 96.5 203.167 96.5 208.5C91.167 208.5 85.833 208.5 80.5 208.5C80.5 203.167 80.5 197.833 80.5 192.5Z" fill="#29292E"/>
<path fill-rule="evenodd" clip-rule="evenodd" d="M112.5 192.5C117.833 192.5 123.167 192.5 128.5 192.5C128.5 197.833 128.5 203.167 128.5 208.5C123.167 208.5 117.833 208.5 112.5 208.5C112.5 203.167 112.5 197.833 112.5 192.5Z" fill="#29292E"/>
<path fill-rule="evenodd" clip-rule="evenodd" d="M144.5 192.5C149.833 192.5 155.167 192.5 160.5 192.5C160.5 197.833 160.5 203.167 160.5 208.5C155.167 208.5 149.833 208.5 144.5 208.5C144.5 203.167 144.5 197.833 144.5 192.5Z" fill="#29292E"/>
<path fill-rule="evenodd" clip-rule="evenodd" d="M176.5 192.5C192.5 192.5 208.5 192.5 224.5 192.5C224.5 197.833 224.5 203.167 224.5 208.5C208.5 208.5 192.5 208.5 176.5 208.5C176.5 203.167 176.5 197.833 176.5 192.5Z" fill="#29292E"/>
<path fill-rule="evenodd" clip-rule="evenodd" d="M240.5 192.5C264.5 192.5 288.5 192.5 312.5 192.5C312.5 197.833 312.5 203.167 312.5 208.5C288.5 208.5 264.5 208.5 240.5 208.5C240.5 203.167 240.5 197.833 240.5 192.5Z" fill="#29292E"/>
<path fill-rule="evenodd" clip-rule="evenodd" d="M33.5 193.5C43.5 193.5 53.5 193.5 63.5 193.5C63.5 198.167 63.5 202.833 63.5 207.5C53.5 207.5 43.5 207.5 33.5 207.5C33.5 202.833 33.5 198.167 33.5 193.5Z" fill="#404A51"/>
<path fill-rule="evenodd" clip-rule="evenodd" d="M81.5 193.5C86.167 193.5 90.833 193.5 95.5 193.5C95.5 198.167 95.5 202.833 95.5 207.5C90.833 207.5 86.167 207.5 81.5 207.5C81.5 202.833 81.5 198.167 81.5 193.5Z" fill="#404A51"/>
<path fill-rule="evenodd" clip-rule="evenodd" d="M113.5 193.5C118.167 193.5 122.833 193.5 127.5 193.5C127.5 198.167 127.5 202.833 127.5 207.5C122.833 207.5 118.167 207.5 113.5 207.5C113.5 202.833 113.5 198.167 113.5 193.5Z" fill="#404A51"/>
<path fill-rule="evenodd" clip-rule="evenodd" d="M145.5 193.5C150.167 193.5 154.833 193.5 159.5 193.5C159.5 198.167 159.5 202.833 159.5 207.5C154.833 207.5 150.167 207.5 145.5 207.5C145.5 202.833 145.5 198.167 145.5 193.5Z" fill="#404A51"/>
<path fill-rule="evenodd" clip-rule="evenodd" d="M177.5 193.5C192.833 193.5 208.167 193.5 223.5 193.5C223.5 198.167 223.5 202.833 223.5 207.5C208.167 207.5 192.833 207.5 177.5 207.5C177.5 202.833 177.5 198.167 177.5 193.5Z" fill="#404A51"/>
<path fill-rule="evenodd" clip-rule="evenodd" d="M241.5 193.5C264.833 193.5 288.167 193.5 311.5 193.5C311.5 198.167 311.5 202.833 311.5 207.5C288.167 207.5 264.833 207.5 241.5 207.5C241.5 202.833 241.5 198.167 241.5 193.5Z" fill="#404A51"/>
<path fill-rule="evenodd" clip-rule="evenodd" d="M32.5 224.5C40.5 224.5 48.5 224.5 56.5 224.5C56.5 229.833 56.5 235.167 56.5 240.5C48.5 240.5 40.5 240.5 32.5 240.5C32.5 235.167 32.5 229.833 32.5 224.5Z" fill="#29292E"/>
<path fill-rule="evenodd" clip-rule="evenodd" d="M176.5 224.5C142.337 225.498 108.004 225.832 73.5 225.5C73.5 230.167 73.5 234.833 73.5 239.5C105.004 239.168 136.338 239.502 167.5 240.5C135.833 240.5 104.167 240.5 72.5 240.5C72.5 235.167 72.5 229.833 72.5 224.5C107.167 224.5 141.833 224.5 176.5 224.5Z" fill="#29292E"/>
<path fill-rule="evenodd" clip-rule="evenodd" d="M33.5 225.5C40.833 225.5 48.167 225.5 55.5 225.5C55.5 230.167 55.5 234.833 55.5 239.5C48.167 239.5 40.833 239.5 33.5 239.5C33.5 234.833 33.5 230.167 33.5 225.5Z" fill="#404A51"/>
<path fill-rule="evenodd" clip-rule="evenodd" d="M167.5 272.5C168.497 293.66 168.831 314.993 168.5 336.5C173.833 336.5 179.167 336.5 184.5 336.5C184.333 315.164 184.5 293.831 185 272.5C195.342 282.624 207.842 288.124 222.5 289C212.469 328.652 203.136 368.486 194.5 408.5C182.5 408.5 170.5 408.5 158.5 408.5C149.864 368.486 140.531 328.652 130.5 289C144.928 287.817 157.262 282.317 167.5 272.5Z" fill="#F78726"/>
<path fill-rule="evenodd" clip-rule="evenodd" d="M141.5 424.5C164.836 424.333 188.169 424.5 211.5 425C218.131 430.447 217.798 435.447 210.5 440C187.5 440.667 164.5 440.667 141.5 440C134.875 434.754 134.875 429.587 141.5 424.5Z" fill="#9EE9F8"/>
<path fill-rule="evenodd" clip-rule="evenodd" d="M213.5 494.5C188.833 495.833 164.167 495.833 139.5 494.5C143.44 482.303 146.94 469.97 150 457.5C167.436 456.176 184.936 456.176 202.5 457.5C206.331 469.833 209.998 482.166 213.5 494.5Z" fill="#9CE7F7"/>
<path fill-rule="evenodd" clip-rule="evenodd" d="M122.5 494.5C94.853 496.492 66.853 497.158 38.5 496.5C66.402 495.825 94.402 495.159 122.5 494.5Z" fill="#AEFEFE"/>
<path fill-rule="evenodd" clip-rule="evenodd" d="M139.5 494.5C164.167 495.833 188.833 495.833 213.5 494.5C201.519 495.832 189.185 496.499 176.5 496.5C163.815 496.499 151.481 495.832 139.5 494.5Z" fill="#AEFEFE"/>
<path fill-rule="evenodd" clip-rule="evenodd" d="M230.5 494.5C258.598 495.159 286.598 495.825 314.5 496.5C286.147 497.158 258.147 496.492 230.5 494.5Z" fill="#AEFEFE"/>
</svg>
