<svg width="277" height="321" viewBox="0 0 277 321" fill="#F0F0F0" xmlns="http://www.w3.org/2000/svg">

<path opacity="0.874" fill-rule="evenodd" clip-rule="evenodd" d="M2.5 0.499944C93.644 -0.161056 184.644 0.505944 275.5 2.49994C276.833 107.167 276.833 211.833 275.5 316.5C272.869 317.724 270.035 318.391 267 318.5C260.205 318.862 255.705 315.862 253.5 309.5C250.108 309.129 247.442 307.463 245.5 304.5C243.833 303.833 242.167 303.167 240.5 302.5C236.206 298.026 231.539 294.026 226.5 290.5C225.311 289.571 223.978 289.238 222.5 289.5C222.52 287.857 221.853 286.524 220.5 285.5C212.537 279.87 204.871 273.87 197.5 267.5C195.955 266.548 194.288 266.215 192.5 266.5C192.024 264.007 190.69 262.007 188.5 260.5C181.372 254.432 173.705 249.099 165.5 244.5C163.5 242.167 161.5 239.833 159.5 237.5C155.413 234.409 151.08 231.743 146.5 229.5C144.167 227.167 141.833 224.833 139.5 222.5C132.378 227.815 125.044 232.815 117.5 237.5C115.5 239.833 113.5 242.167 111.5 244.5C103.993 250.085 96.327 255.418 88.5 260.5C86.31 262.007 84.976 264.007 84.5 266.5C82.712 266.215 81.045 266.548 79.5 267.5C74.167 272.167 68.833 276.833 63.5 281.5C61.018 282.574 58.684 283.908 56.5 285.5C55.147 286.524 54.48 287.857 54.5 289.5C53.022 289.238 51.689 289.571 50.5 290.5C43.101 296.906 35.434 302.906 27.5 308.5C26.311 309.429 24.978 309.762 23.5 309.5C21.005 315.484 16.505 319.151 10 320.5C6.838 319.835 4.005 318.502 1.5 316.5C1.167 264.167 0.833 211.833 0.5 159.5C0.509 106.358 1.175 53.3579 2.5 0.499944ZM19.5 19.4999C98.833 19.4999 178.167 19.4999 257.5 19.4999C257.833 109.502 257.5 199.502 256.5 289.5C254.539 286.537 252.206 283.871 249.5 281.5C241.993 275.915 234.327 270.582 226.5 265.5C225.167 263.833 223.833 262.167 222.5 260.5C217.219 257.546 212.219 254.213 207.5 250.5C204.218 245.869 199.884 242.869 194.5 241.5C194.024 239.007 192.69 237.007 190.5 235.5C182.673 230.418 175.007 225.085 167.5 219.5C165.785 216.928 163.785 214.595 161.5 212.5C155.954 208.288 150.288 204.288 144.5 200.5C141.167 199.167 137.833 199.167 134.5 200.5C127.876 204.793 121.543 209.46 115.5 214.5C114.311 215.429 112.978 215.762 111.5 215.5C109.47 220.526 105.803 223.859 100.5 225.5C95.461 229.026 90.794 233.026 86.5 237.5C85.311 238.429 83.978 238.762 82.5 238.5C82.5 239.5 82.5 240.5 82.5 241.5C79.547 243.089 76.547 244.756 73.5 246.5C67.833 251.333 62.167 256.167 56.5 261C55.207 261.49 53.873 261.657 52.5 261.5C52.024 263.993 50.69 265.993 48.5 267.5C41.372 273.568 33.705 278.901 25.5 283.5C23.833 285.5 22.167 287.5 20.5 289.5C19.5 199.502 19.167 109.502 19.5 19.4999Z" fill="#595A59"/>

</svg>
