<svg width="514" height="513" viewBox="0 0 514 513" fill="none" xmlns="http://www.w3.org/2000/svg">
<path opacity="0.975" fill-rule="evenodd" clip-rule="evenodd" d="M512.605 151.118C517.08 220.662 490.746 274.828 433.605 313.618C384.018 342.476 332.351 346.81 278.605 326.618C264.231 320.686 251.065 312.853 239.105 303.118C231.938 310.285 224.772 317.451 217.605 324.618C224.082 332.958 224.248 341.458 218.105 350.118C165.272 402.951 112.438 455.785 59.6052 508.618C52.6322 512.438 45.2982 513.108 37.6052 510.618C25.1052 499.451 13.2722 487.618 2.10522 475.118C-0.384776 467.461 0.285225 460.128 4.10522 453.118C56.9382 400.285 109.772 347.451 162.605 294.618C171.249 288.55 179.749 288.717 188.105 295.118C195.272 287.951 202.438 280.785 209.605 273.618C178.42 232.369 167.586 186.203 177.105 135.118C194.086 65.4698 237.253 21.6369 306.605 3.61785C386.284 -9.61215 447.784 17.5539 491.105 85.1179C502.222 105.967 509.389 127.967 512.605 151.118ZM471.605 154.118C474.936 209.627 453.269 252.127 406.605 281.618C352.851 308.148 302.851 302.481 256.605 264.618C219.037 227.565 206.871 183.398 220.105 132.118C238.231 80.9649 274.064 50.7979 327.605 41.6179C384.017 37.4049 426.85 59.2379 456.105 107.118C463.814 122.078 468.981 137.744 471.605 154.118Z" fill="#595A59"/>
</svg>
