<svg width="513" height="513" viewBox="0 0 513 513" fill="none" xmlns="http://www.w3.org/2000/svg">
<path opacity="0.941" fill-rule="evenodd" clip-rule="evenodd" d="M350.5 0.499896C396.835 0.332896 443.168 0.499896 489.5 0.999896C501.25 3.7499 508.75 10.9169 512 22.4999C512.67 31.1669 512.67 39.8329 512 48.4999C510.61 51.3659 508.27 52.6989 505 52.4999C501.726 52.6989 499.393 51.3659 498 48.4999C497.667 42.4999 497.333 36.4999 497 30.4999C496.72 23.4179 493.22 18.9179 486.5 16.9999C442.167 16.3329 397.833 16.3329 353.5 16.9999C348.333 18.1669 345.167 21.3329 344 26.4999C343.333 50.1669 343.333 73.8329 344 97.4999C344.883 100.102 346.383 102.269 348.5 104C354.259 106.491 360.259 108.158 366.5 109C371.445 111.946 374.945 116.112 377 121.5C377.333 132.5 377.667 143.5 378 154.5C386.333 140.833 394.667 127.167 403 113.5C405.669 110.836 408.836 109.002 412.5 108C437.874 107.953 463.208 107.286 488.5 106C492.058 104.108 494.558 101.275 496 97.4999C497.135 90.2179 497.801 82.8849 498 75.4999C502.667 70.1669 507.33 70.1669 512 75.4999C512.67 84.1669 512.67 92.8329 512 101.5C508.5 111.667 501.667 118.5 491.5 122C466.437 122.028 441.437 122.695 416.5 124C405.937 140.235 395.77 156.735 386 173.5C380.482 179.921 373.982 181.087 366.5 177C364.106 175.048 362.606 172.548 362 169.5C361.667 154.833 361.333 140.167 361 125.5C359.829 124.107 358.329 123.273 356.5 123C341.711 122.212 332.211 114.712 328 100.5C327.333 74.8329 327.333 49.1669 328 23.4999C331.015 11.3189 338.515 3.6529 350.5 0.499896Z" fill="#595A59"/>
<path opacity="0.937" fill-rule="evenodd" clip-rule="evenodd" d="M154.5 28.5C187.549 28.028 220.549 28.528 253.5 30C268.117 35.392 275.783 45.892 276.5 61.5C292.218 62.401 303.052 70.067 309 84.5C310.273 100.78 310.94 117.114 311 133.5C318.851 137.866 323.184 144.532 324 153.5C324.667 174.167 324.667 194.833 324 215.5C321.436 229.061 313.603 237.894 300.5 242C293.5 242.333 286.5 242.667 279.5 243C272 254.5 262.5 264 251 271.5C250.13 279.897 250.463 288.23 252 296.5C252.883 299.102 254.383 301.269 256.5 303C286.167 303.333 315.833 303.667 345.5 304C357.991 307.158 365.825 314.991 369 327.5C369.166 339.172 369.166 350.838 369 362.5C382.72 380.978 391.387 401.645 395 424.5C396.183 440.805 396.849 457.139 397 473.5C404.875 485.264 404.041 496.431 394.5 507C391.446 509.19 388.112 510.86 384.5 512C262.5 512.67 140.5 512.67 18.4997 512C2.50668 506.18 -2.99332 495.013 1.99968 478.5C3.33268 476.5 4.66668 474.5 5.99968 472.5C1.11168 431.717 10.4447 394.717 33.9997 361.5C33.8157 352.69 33.3157 343.856 32.4997 335C33.4507 319.066 41.4507 308.732 56.4997 304C86.1667 303.667 115.833 303.333 145.5 303C148.106 301.062 149.939 298.562 151 295.5C151.667 287.5 151.667 279.5 151 271.5C128.496 256.505 115.662 235.505 112.5 208.5C95.9817 211.997 84.8147 205.997 78.9997 190.5C78.3327 176.833 78.3327 163.167 78.9997 149.5C80.9187 142.977 84.7527 137.977 90.4997 134.5C91.3327 121.846 91.8327 109.18 91.9997 96.5C96.7317 58.938 117.566 36.271 154.5 28.5ZM156.5 44.5C186.835 44.333 217.168 44.5 247.5 45C256.897 48.936 261.397 56.103 261 66.5C262.833 71.667 266.333 75.167 271.5 77C282.268 76.292 289.768 80.792 294 90.5C294.974 109.257 294.64 127.924 293 146.5C287.256 150.03 281.089 152.697 274.5 154.5C273.667 141.846 273.167 129.18 273 116.5C267.861 99.5 256.361 90.5 238.5 89.5C229.106 91.015 219.772 92.848 210.5 95C204.167 95.667 197.833 95.667 191.5 95C182.372 92.926 173.205 91.092 164 89.5C144.617 90.552 132.95 100.552 129 119.5C128.667 131.167 128.333 142.833 128 154.5C122.183 152.338 116.35 150.172 110.5 148C109.107 146.829 108.273 145.329 108 143.5C107.333 128.5 107.333 113.5 108 98.5C111.426 68.914 127.593 50.914 156.5 44.5ZM160.5 105.5C168.313 106.203 175.98 107.703 183.5 110C195.167 112 206.833 112 218.5 110C225.146 108.395 231.813 106.895 238.5 105.5C247.757 106.276 253.924 110.942 257 119.5C257.054 133.235 257.72 146.902 259 160.5C262.362 167.268 267.862 170.601 275.5 170.5C276.03 185.59 275.196 200.59 273 215.5C272.692 216.308 272.192 216.975 271.5 217.5C268.779 215.473 265.779 213.973 262.5 213C253.167 212.333 243.833 212.333 234.5 213C221.209 217.403 216.042 226.57 219 240.5C224.476 251.991 233.643 256.825 246.5 255C215.602 275.87 184.936 275.536 154.5 254C141.063 243.223 132.563 229.39 129 212.5C127.612 198.545 127.112 184.545 127.5 170.5C135.525 170.644 141.025 166.978 144 159.5C144.071 145.445 144.738 131.445 146 117.5C148.94 111.047 153.774 107.047 160.5 105.5ZM94.4997 154.5C98.3697 160.117 103.704 163.783 110.5 165.5C111.498 174.81 111.832 184.143 111.5 193.5C107.418 193.656 103.418 193.156 99.4997 192C97.3327 191.167 95.8327 189.667 94.9997 187.5C94.4997 176.505 94.3327 165.505 94.4997 154.5ZM307.5 154.5C308.166 159.489 308.499 164.656 308.5 170C308.601 176.245 308.101 182.411 307 188.5C302.755 192.693 297.588 194.359 291.5 193.5C291.168 184.143 291.502 174.81 292.5 165.5C298.777 163.533 303.777 159.866 307.5 154.5ZM306.5 207.5C309.184 213.88 307.517 219.38 301.5 224C296.734 226.57 291.734 227.07 286.5 225.5C288.598 220.009 289.931 214.342 290.5 208.5C296.026 208.821 301.36 208.488 306.5 207.5ZM237.5 228.5C244.841 228.334 252.174 228.5 259.5 229C262.203 230.82 263.036 233.32 262 236.5C261.25 237.126 260.416 237.626 259.5 238C252.167 238.667 244.833 238.667 237.5 238C234.621 236.334 233.788 233.834 235 230.5C235.995 229.934 236.828 229.267 237.5 228.5ZM167.5 279.5C189.658 288.484 211.991 288.817 234.5 280.5C234.45 288.236 235.117 295.903 236.5 303.5C212.824 303.833 189.157 303.5 165.5 302.5C167.308 294.966 167.975 287.299 167.5 279.5ZM59.4997 319.5C154.167 319.333 248.834 319.5 343.5 320C351.389 323.606 354.722 329.773 353.5 338.5C351.166 380.506 348.833 422.506 346.5 464.5C307.833 464.5 269.167 464.5 230.5 464.5C231.128 459.572 232.628 454.905 235 450.5C243.039 441.761 249.039 431.761 253 420.5C258.643 393.972 250.143 373.472 227.5 359C218.858 356.071 213.024 358.905 210 367.5C209.5 380.162 209.333 392.829 209.5 405.5C203.907 405.807 198.407 405.473 193 404.5C192.667 391.5 192.333 378.5 192 365.5C188.171 358.221 182.337 356.054 174.5 359C148.689 377.05 141.523 400.883 153 430.5C158 437.5 163 444.5 168 451.5C169.705 455.618 171.205 459.785 172.5 464C133.501 464.5 94.5007 464.667 55.4997 464.5C55.6227 456.13 55.1227 447.797 53.9997 439.5C51.0447 435.723 47.2117 434.557 42.4997 436C40.9507 437.214 39.7847 438.714 38.9997 440.5C39.0977 448.483 39.2647 456.483 39.4997 464.5C33.4997 464.5 27.4997 464.5 21.4997 464.5C19.6457 438.621 24.1457 413.954 34.9997 390.5C36.1627 397.103 36.8297 403.77 36.9997 410.5C39.6947 416.098 43.8617 417.598 49.4997 415C50.7007 414.097 51.5347 412.931 51.9997 411.5C51.6907 386.135 50.5247 360.802 48.4997 335.5C49.0837 327.936 52.7507 322.603 59.4997 319.5ZM225.5 377.5C238.233 389.432 241.733 403.765 236 420.5C232.112 427.72 227.445 434.386 222 440.5C217.969 447.93 215.135 455.763 213.5 464C205.173 464.5 196.84 464.666 188.5 464.5C186.247 449.328 179.747 436.328 169 425.5C159.974 408.089 162.308 392.422 176 378.5C176.333 388.167 176.667 397.833 177 407.5C178.638 413.809 182.471 418.309 188.5 421C196.833 421.667 205.167 421.667 213.5 421C219.307 419.193 223.141 415.36 225 409.5C225.5 398.839 225.667 388.172 225.5 377.5ZM366.5 389.5C372.73 401.02 376.896 413.354 379 426.5C380.292 439.131 380.792 451.798 380.5 464.5C374.5 464.5 368.5 464.5 362.5 464.5C364.092 439.516 365.425 414.516 366.5 389.5ZM21.4997 480.5C141.167 480.333 260.834 480.5 380.5 481C388.035 485.485 388.368 490.485 381.5 496C261.5 496.667 141.5 496.667 21.4997 496C16.3107 493.087 15.1437 488.92 17.9997 483.5C19.1447 482.364 20.3117 481.364 21.4997 480.5Z" fill="#595A59"/>
<path opacity="0.892" fill-rule="evenodd" clip-rule="evenodd" d="M365.5 37.5001C370.511 37.3341 375.511 37.5011 380.5 38.0001C384.753 41.4201 385.587 45.5871 383 50.5001C379.958 52.8891 376.458 53.8891 372.5 53.5001C363.135 53.6521 359.635 49.3191 362 40.5001C363.145 39.3641 364.312 38.3641 365.5 37.5001Z" fill="#595A59"/>
<path opacity="0.924" fill-rule="evenodd" clip-rule="evenodd" d="M402.5 37.5001C426.836 37.3331 451.169 37.5001 475.5 38.0001C481.172 43.9541 480.505 48.9541 473.5 53.0001C450.167 53.6671 426.833 53.6671 403.5 53.0001C396.335 48.0931 396.002 42.9261 402.5 37.5001Z" fill="#595A59"/>
<path opacity="0.926" fill-rule="evenodd" clip-rule="evenodd" d="M365.5 72.5001C401.835 72.3331 438.168 72.5001 474.5 73.0001C479.535 76.0131 480.702 80.1801 478 85.5001C477.097 86.7011 475.931 87.5351 474.5 88.0001C438.167 88.6671 401.833 88.6671 365.5 88.0001C358.914 82.8401 358.914 77.6731 365.5 72.5001Z" fill="#595A59"/>
</svg>
