<svg width="513" height="514" viewBox="0 0 513 514" fill="none" xmlns="http://www.w3.org/2000/svg">
<path opacity="0.958" fill-rule="evenodd" clip-rule="evenodd" d="M201.5 1.4999C209.371 -0.256105 215.538 2.0769 220 8.4999C221.95 35.7929 236.45 48.9589 263.5 47.9999C282.885 42.0969 292.718 28.9299 293 8.4999C295.882 3.5579 300.215 1.2239 306 1.4999C342.503 7.5469 375.503 21.5469 405 43.4999C407.754 48.0129 408.087 52.6799 406 57.4999C393.045 71.2299 390.712 86.5629 399 103.5C409.796 118.099 423.962 122.932 441.5 118C446.772 115.059 451.772 111.726 456.5 108C461.304 106.03 465.97 106.363 470.5 109C492.691 138.398 506.691 171.398 512.5 208C510.98 218.837 504.645 223.837 493.5 223C473.141 229.367 463.975 243.201 466 264.5C471.865 283.872 485.032 293.705 505.5 294C512.14 298.871 514.31 305.371 512 313.5C505.136 345.217 492.803 374.55 475 401.5C470.116 407.22 463.95 409.053 456.5 407C438.12 390.29 419.953 390.457 402 407.5C393.943 418.122 391.943 429.788 396 442.5C398.833 448.17 402.166 453.503 406 458.5C407.859 462.955 407.525 467.289 405 471.5C387.365 485.238 367.865 495.738 346.5 503C333.356 507.938 319.856 511.44 306 513.5C300.215 513.78 295.882 511.44 293 506.5C291.059 479.216 276.559 466.049 249.5 467C237.328 469.841 228.828 477.008 224 488.5C222.342 494.434 221.009 500.434 220 506.5C215.532 513.08 209.365 515.25 201.5 513C172.67 506.837 145.67 496.17 120.5 481C115.884 478.44 111.718 475.273 108 471.5C105.167 467.006 104.834 462.339 107 457.5C119.955 443.77 122.288 428.437 114 411.5C96.387 390.762 77.22 389.262 56.5 407C51.684 409.066 47.017 408.733 42.5 406C20.547 376.503 6.547 343.503 0.5 307C2.022 296.163 8.355 291.163 19.5 292C39.903 285.6 49.069 271.766 47 250.5C44.159 238.328 36.992 229.828 25.5 225C19.616 223.18 13.616 221.847 7.5 221C4.272 219.437 2.105 216.937 1 213.5C0.308 208.109 0.641 202.775 2 197.5C8.481 170.545 18.815 145.212 33 121.5C35.56 116.884 38.727 112.718 42.5 109C47.914 106.282 53.248 106.282 58.5 109C73.141 122.273 88.807 123.606 105.5 113C123.502 94.9849 124.002 76.4849 107 57.4999C105.338 52.7649 105.671 48.0989 108 43.4999C125.635 29.7619 145.135 19.2619 166.5 11.9999C178.152 8.0099 189.819 4.5099 201.5 1.4999ZM195.5 31.4999C209.037 65.5009 234.037 80.0009 270.5 74.9999C293.787 68.7809 309.287 54.2809 317 31.4999C336.997 37.0839 355.831 45.2509 373.5 55.9999C362.721 79.5229 364.554 102.023 379 123.5C401.113 148.324 427.446 153.99 458 140.5C468.972 157.909 477.139 176.576 482.5 196.5C449.015 209.854 434.515 234.521 439 270.5C444.579 294.579 459.079 310.579 482.5 318.5C477.131 338.459 468.964 357.126 458 374.5C434.477 363.721 411.977 365.554 390.5 380C371.903 395.437 364.07 415.27 367 439.5C367.971 446.414 370.138 452.914 373.5 459C355.968 469.595 337.302 477.762 317.5 483.5C303.969 449.508 278.969 435.008 242.5 440C219.205 446.305 203.538 460.805 195.5 483.5C175.854 477.674 157.188 469.674 139.5 459.5C152.186 431.606 148.186 406.44 127.5 384C105.181 365.761 80.848 362.594 54.5 374.5C44.172 356.675 36.172 337.841 30.5 318C64.152 304.981 78.652 280.481 74 244.5C68.066 220.784 53.566 204.951 30.5 197C36.154 177.189 44.154 158.356 54.5 140.5C87.551 154.696 115.051 147.696 137 119.5C148.655 98.5839 149.488 77.2509 139.5 55.4999C157.318 45.2509 175.985 37.2509 195.5 31.4999ZM251.5 157.5C293.041 157.845 324.208 175.845 345 211.5C365.633 258.76 357.133 299.927 319.5 335C276.923 365.219 234.59 364.886 192.5 334C158.787 302.317 149.287 264.483 164 220.5C181.357 182.96 210.524 161.96 251.5 157.5Z" fill="#595A59"/>
</svg>
