<svg width="513" height="513" viewBox="0 0 513 513" fill="none" xmlns="http://www.w3.org/2000/svg">
<path opacity="0.963" fill-rule="evenodd" clip-rule="evenodd" d="M233.5 0.500037C342.172 -4.25796 424.672 39.409 481 131.5C514.16 194.24 521.49 259.907 503 328.5C478.466 406.036 428.966 461.203 354.5 494C270.1 525.62 189.766 517.62 113.5 470C25.583 405.619 -10.917 319.119 4.00004 210.5C22.182 123.329 71.349 60.496 151.5 22C177.892 10.737 205.225 3.57004 233.5 0.500037ZM255.5 30.5C328.48 32.409 387.98 61.409 434 117.5C483.483 184.871 494.483 258.204 467 337.5C454.267 369.222 435.6 396.889 411 420.5C395.494 372.828 364.994 338.495 319.5 317.5C358.585 288.111 374.085 249.111 366 200.5C352.297 149.796 319.463 120.63 267.5 113C214.031 110.637 175.865 133.471 153 181.5C137.094 225.293 144.094 264.96 174 300.5C180.377 306.382 186.877 312.049 193.5 317.5C148.006 338.495 117.506 372.828 102 420.5C40.647 359.08 19.314 285.747 38 200.5C62.833 117 117 62.833 200.5 38C218.751 33.762 237.084 31.262 255.5 30.5ZM247.5 143.5C285.166 141.739 312.666 157.406 330 190.5C344.55 228.421 336.717 260.921 306.5 288C273.167 311.333 239.833 311.333 206.5 288C177.813 262.752 169.313 231.919 181 195.5C193.681 165.981 215.848 148.647 247.5 143.5ZM242.5 336.5C298.631 333.477 341.131 355.81 370 403.5C376.757 415.769 381.09 428.769 383 442.5C324.48 481.17 261.313 491.336 193.5 473C171.265 466.547 150.598 456.881 131.5 444C130.426 443.261 129.759 442.261 129.5 441C144.664 381.664 182.331 346.83 242.5 336.5Z" fill="#595A59"/>
</svg>
