<svg width="513" height="513" viewBox="0 0 513 513" fill="none" xmlns="http://www.w3.org/2000/svg">
<path opacity="0.993" fill-rule="evenodd" clip-rule="evenodd" d="M35.5003 0.499896C93.5013 0.332896 151.501 0.499896 209.5 0.999896C228.88 6.3789 240.713 18.8789 245 38.4999C260 159.5 275 280.5 290 401.5C290.667 405.167 290.667 408.833 290 412.5C288.224 415.941 286.057 419.108 283.5 422C200.833 422.667 118.167 422.667 35.5003 422C17.3333 417.167 5.83325 405.667 1.00025 387.5C0.33325 270.167 0.33325 152.833 1.00025 35.4999C6.01625 17.3179 17.5163 5.6519 35.5003 0.499896ZM120.5 107.5C130.839 107.334 141.172 107.5 151.5 108C156.922 108.425 161.089 110.925 164 115.5C174.843 165.713 185.176 216.047 195 266.5C196.533 283.969 189.033 289.802 172.5 284C170.951 282.786 169.785 281.286 169 279.5C164.909 262.376 161.076 245.209 157.5 228C143.167 227.333 128.833 227.333 114.5 228C111.085 243.075 107.918 258.242 105 273.5C101.346 286.074 93.5123 289.574 81.5003 284C76.7983 279.078 75.2983 273.245 77.0003 266.5C86.8243 216.047 97.1573 165.713 108 115.5C111.06 110.911 115.226 108.245 120.5 107.5Z" fill="#595A59"/>
<path opacity="0.991" fill-rule="evenodd" clip-rule="evenodd" d="M280.5 91.5001C345.834 91.3331 411.168 91.5001 476.5 92.0001C494.991 97.1581 506.825 108.991 512 127.5C512.67 244.167 512.67 360.833 512 477.5C507.17 495.667 495.667 507.17 477.5 512C399.167 512.67 320.833 512.67 242.5 512C264.549 486.74 286.716 461.573 309 436.5C317.639 425.278 320.973 412.611 319 398.5C306.247 296.142 293.414 193.809 280.5 91.5001ZM401.5 198.5C412.422 197.197 418.922 201.864 421 212.5C421.499 217.489 421.666 222.489 421.5 227.5C436.837 227.333 452.17 227.5 467.5 228C479.63 230.475 483.796 237.642 480 249.5C475.809 255.509 469.976 258.176 462.5 257.5C455.298 282.079 443.298 303.913 426.5 323C437.619 333.054 449.286 342.388 461.5 351C467.104 357.197 467.937 364.031 464 371.5C457.803 377.104 450.969 377.937 443.5 374C431.023 364.357 418.689 354.523 406.5 344.5C393.597 355.572 380.264 366.072 366.5 376C349.695 376.906 344.195 369.406 350 353.5C362.751 344.086 374.918 333.92 386.5 323C370.53 303.566 358.863 281.732 351.5 257.5C337.437 257.942 331.271 251.276 333 237.5C335.813 232.004 340.313 228.838 346.5 228C361.496 227.5 376.496 227.333 391.5 227.5C391.226 220.77 391.726 214.103 393 207.5C394.688 203.315 397.521 200.315 401.5 198.5Z" fill="#595A59"/>
<path opacity="0.941" fill-rule="evenodd" clip-rule="evenodd" d="M132.5 137.5C135.119 137.232 137.619 137.565 140 138.5C144.028 158.142 147.862 177.809 151.5 197.5C141.167 197.5 130.833 197.5 120.5 197.5C124.121 177.395 128.121 157.395 132.5 137.5Z" fill="#595A59"/>
<path opacity="0.95" fill-rule="evenodd" clip-rule="evenodd" d="M381.5 257.5C398.513 257.167 415.513 257.501 432.5 258.5C426.094 274.333 417.427 288.666 406.5 301.5C395.6 288.375 387.267 273.708 381.5 257.5Z" fill="#595A59"/>
<path opacity="0.967" fill-rule="evenodd" clip-rule="evenodd" d="M175.5 452.5C202.169 452.333 228.835 452.5 255.5 453C238.288 471.376 221.288 489.876 204.5 508.5C191.582 502.747 183.082 493.08 179 479.5C177.423 470.548 176.256 461.548 175.5 452.5Z" fill="#595A59"/>
</svg>
