<svg width="417" height="512" viewBox="0 0 417 512" fill="none" xmlns="http://www.w3.org/2000/svg">
<path opacity="0.963" fill-rule="evenodd" clip-rule="evenodd" d="M248.5 0.500067C253.844 0.334067 259.177 0.501067 264.5 1.00007C282.333 18.8331 300.167 36.6671 318 54.5001C320.256 60.6751 319.923 66.6751 317 72.5001C300.167 89.3331 283.333 106.167 266.5 123C252.464 129.814 243.797 125.648 240.5 110.5C241.026 107.728 241.859 105.062 243 102.5C250.833 94.6671 258.667 86.8331 266.5 79.0001C241.167 78.3331 215.833 78.3331 190.5 79.0001C117.634 89.5081 67.7997 129.008 40.9997 197.5C24.2747 248.286 28.9417 296.953 54.9997 343.5C58.5987 352.612 56.4327 359.946 48.4997 365.5C38.2977 368.976 30.7977 365.976 25.9997 356.5C-0.864288 306.249 -6.86429 253.582 7.99971 198.5C30.0187 129.148 75.1857 81.9811 143.5 57.0001C155.288 53.3861 167.288 50.7201 179.5 49.0001C208.477 47.7531 237.477 47.0871 266.5 47.0001C257.598 38.7681 249.431 29.9341 242 20.5001C239.554 12.2671 241.721 5.60007 248.5 0.500067Z" fill="#595A59"/>
<path opacity="0.962" fill-rule="evenodd" clip-rule="evenodd" d="M369.5 144.5C379.51 142.754 386.677 146.421 391 155.5C426.687 226.616 424.687 296.616 385 365.5C350.184 419.85 300.684 452.017 236.5 462C207.523 463.247 178.523 463.913 149.5 464C157.333 471.833 165.167 479.667 173 487.5C177.097 495.571 175.93 502.738 169.5 509C163.167 512.33 156.833 512.33 150.5 509C133.333 491.833 116.167 474.667 98.9997 457.5C95.6667 451.5 95.6667 445.5 98.9997 439.5C116.5 422 134 404.5 151.5 387C162.139 382.323 169.973 385.156 175 395.5C176.173 400.977 175.173 405.977 172 410.5C164.833 417.667 157.667 424.833 150.5 432C175.5 432.667 200.5 432.667 225.5 432C302.213 421.057 353.047 378.89 378 305.5C391.759 256.753 386.093 210.419 361 166.5C357.777 156.671 360.61 149.338 369.5 144.5Z" fill="#595A59"/>
<path opacity="0.972" fill-rule="evenodd" clip-rule="evenodd" d="M202.5 150.5C211.974 148.654 218.807 151.988 223 160.5C223.5 167.158 223.666 173.825 223.5 180.5C235.171 180.333 246.838 180.5 258.5 181C268.723 186.295 271.223 194.128 266 204.5C264.062 207.106 261.562 208.939 258.5 210C236.833 210.333 215.167 210.667 193.5 211C181.825 213.197 177.325 220.03 180 231.5C182.949 236.728 187.449 239.561 193.5 240C206.5 240.333 219.5 240.667 232.5 241C258.851 248.503 270.684 266.003 268 293.5C262.444 317.024 247.611 329.357 223.5 330.5C223.666 337.175 223.5 343.842 223 350.5C218.81 359.177 211.976 362.343 202.5 360C197.162 357.993 193.996 354.159 193 348.5C192.501 342.509 192.334 336.509 192.5 330.5C180.829 330.667 169.162 330.5 157.5 330C147.394 324.008 145.228 315.841 151 305.5C152.731 303.383 154.898 301.883 157.5 301C179.5 300.667 201.5 300.333 223.5 300C233.783 298.05 238.283 291.884 237 281.5C234.513 275.34 230.013 271.84 223.5 271C210.167 270.667 196.833 270.333 183.5 270C159.044 262.598 147.211 246.098 148 220.5C152.603 195.728 167.437 182.395 192.5 180.5C192.116 173.411 192.616 166.411 194 159.5C195.688 155.315 198.521 152.315 202.5 150.5Z" fill="#595A59"/>
</svg>
