<svg width="513" height="451" viewBox="0 0 513 451" fill="none" xmlns="http://www.w3.org/2000/svg">
<path opacity="0.967" fill-rule="evenodd" clip-rule="evenodd" d="M270.5 0.5C351.502 60.006 432.169 120.006 512.5 180.5C432.306 240.854 351.806 300.854 271 360.5C270.5 325.502 270.333 290.502 270.5 255.5C248.813 255.218 227.147 255.718 205.5 257C149.691 263.979 104.525 289.479 70.0001 333.5C44.4821 368.222 31.6491 407.222 31.5001 450.5C21.1671 450.5 10.8331 450.5 0.500141 450.5C0.333141 422.498 0.500141 394.498 1.00014 366.5C12.1081 266.156 60.9411 190.656 147.5 140C185.902 119.255 226.902 107.755 270.5 105.5C270.5 70.5 270.5 35.5 270.5 0.5ZM300.5 61.5C354.199 100.682 407.532 140.349 460.5 180.5C407.244 220.045 354.077 259.712 301 299.5C300.5 274.502 300.333 249.502 300.5 224.5C268.15 224.152 235.817 224.652 203.5 226C135.692 233.635 81.8591 264.802 42.0001 319.5C55.1621 273.019 79.6621 233.519 115.5 201C168.413 155.302 230.079 133.468 300.5 135.5C300.5 110.833 300.5 86.167 300.5 61.5Z" fill="#595A59"/>
</svg>
