<svg width="395" height="513" viewBox="0 0 395 513" fill="none" xmlns="http://www.w3.org/2000/svg">
<path opacity="0.982" fill-rule="evenodd" clip-rule="evenodd" d="M5.50025 0.500019C99.5012 0.333019 193.501 0.500019 287.5 1.00002C322.667 36.167 357.833 71.333 393 106.5C394.661 239.444 394.995 372.444 394 505.5C393.608 508.46 392.108 510.62 389.5 512C261.5 512.67 133.5 512.67 5.50025 512C2.89225 510.62 1.39225 508.46 1.00025 505.5C0.33325 339.5 0.33325 173.5 1.00025 7.50002C1.54525 4.47302 3.04525 2.14002 5.50025 0.500019Z" fill="#353535"/>
<path fill-rule="evenodd" clip-rule="evenodd" d="M18.5 18.5C103.665 17.501 188.998 17.167 274.5 17.5C274.5 48.833 274.5 80.167 274.5 111.5C273.502 80.671 273.169 49.671 273.5 18.5C188.5 18.5 103.5 18.5 18.5 18.5Z" fill="#8DBADE"/>
<path fill-rule="evenodd" clip-rule="evenodd" d="M18.5 18.5C103.5 18.5 188.5 18.5 273.5 18.5C273.169 49.671 273.502 80.671 274.5 111.5C274.718 116.05 277.051 118.716 281.5 119.5C312.996 120.498 344.662 120.832 376.5 120.5C376.5 245.5 376.5 370.5 376.5 495.5C339.5 495.5 302.5 495.5 265.5 495.5C265.667 437.499 265.5 379.499 265 321.5C244.206 297.037 223.039 272.87 201.5 249C198.833 248.333 196.167 248.333 193.5 249C171.99 272.845 150.823 297.012 130 321.5C129.5 379.499 129.333 437.499 129.5 495.5C92.5 495.5 55.5 495.5 18.5 495.5C18.5 336.5 18.5 177.5 18.5 18.5Z" fill="#95C7EE"/>
<path fill-rule="evenodd" clip-rule="evenodd" d="M363.5 101.5C339.672 102.498 315.672 102.831 291.5 102.5C291.333 78.498 291.5 54.498 292 30.5C315.701 54.368 339.535 78.035 363.5 101.5Z" fill="#59A9E6"/>
<path fill-rule="evenodd" clip-rule="evenodd" d="M86.5 52.5C143.331 51.501 200.331 51.168 257.5 51.5C257.822 57.358 257.489 63.025 256.5 68.5C256.5 63.167 256.5 57.833 256.5 52.5C199.833 52.5 143.167 52.5 86.5 52.5Z" fill="#475158"/>
<path fill-rule="evenodd" clip-rule="evenodd" d="M52.5 51.5C58.167 51.5 63.833 51.5 69.5 51.5C69.5 57.167 69.5 62.833 69.5 68.5C63.833 68.5 58.167 68.5 52.5 68.5C52.5 62.833 52.5 57.167 52.5 51.5Z" fill="#363636"/>
<path fill-rule="evenodd" clip-rule="evenodd" d="M86.5 52.5C143.167 52.5 199.833 52.5 256.5 52.5C256.5 57.833 256.5 63.167 256.5 68.5C199.833 68.5 143.167 68.5 86.5 68.5C86.5 63.167 86.5 57.833 86.5 52.5Z" fill="#353535"/>
<path fill-rule="evenodd" clip-rule="evenodd" d="M52.5 103.5C120.665 102.501 188.998 102.167 257.5 102.5C257.5 108.5 257.5 114.5 257.5 120.5C188.998 120.833 120.665 120.499 52.5 119.5C120.5 119.5 188.5 119.5 256.5 119.5C256.5 114.167 256.5 108.833 256.5 103.5C188.5 103.5 120.5 103.5 52.5 103.5Z" fill="#607687"/>
<path fill-rule="evenodd" clip-rule="evenodd" d="M363.5 101.5C364.043 101.56 364.376 101.893 364.5 102.5C340.003 103.829 315.67 103.829 291.5 102.5C315.672 102.831 339.672 102.498 363.5 101.5Z" fill="#43637C"/>
<path fill-rule="evenodd" clip-rule="evenodd" d="M52.5 103.5C120.5 103.5 188.5 103.5 256.5 103.5C256.5 108.833 256.5 114.167 256.5 119.5C188.5 119.5 120.5 119.5 52.5 119.5C52.5 114.167 52.5 108.833 52.5 103.5Z" fill="#343534"/>
<path fill-rule="evenodd" clip-rule="evenodd" d="M281.5 119.5C313.5 119.5 345.5 119.5 377.5 119.5C377.833 245.001 377.5 370.334 376.5 495.5C376.5 370.5 376.5 245.5 376.5 120.5C344.662 120.832 312.996 120.498 281.5 119.5Z" fill="#4C5861"/>
<path fill-rule="evenodd" clip-rule="evenodd" d="M188.5 196.5C194.5 196.5 200.5 196.5 206.5 196.5C206.5 208.167 206.5 219.833 206.5 231.5C200.5 231.5 194.5 231.5 188.5 231.5C188.5 219.833 188.5 208.167 188.5 196.5Z" fill="#637B8E"/>
<path fill-rule="evenodd" clip-rule="evenodd" d="M189.5 197.5C194.833 197.5 200.167 197.5 205.5 197.5C205.5 208.5 205.5 219.5 205.5 230.5C200.167 230.5 194.833 230.5 189.5 230.5C189.5 219.5 189.5 208.5 189.5 197.5Z" fill="#343534"/>
<path fill-rule="evenodd" clip-rule="evenodd" d="M117.5 226.5C118.552 226.351 119.552 226.517 120.5 227C127.667 234.167 134.833 241.333 142 248.5C142.667 249.5 142.667 250.5 142 251.5C138.651 255.016 135.151 258.349 131.5 261.5C123.167 253.833 115.167 245.833 107.5 237.5C110.855 233.813 114.189 230.147 117.5 226.5Z" fill="#373839"/>
<path fill-rule="evenodd" clip-rule="evenodd" d="M274.5 226.5C279.668 228.986 284.001 232.653 287.5 237.5C279.833 245.833 271.833 253.833 263.5 261.5C259.301 258.136 255.635 254.302 252.5 250C259.659 242.008 266.992 234.174 274.5 226.5Z" fill="#373839"/>
<path fill-rule="evenodd" clip-rule="evenodd" d="M196.5 270.5C198.196 270.685 199.529 271.519 200.5 273C198.5 273.667 196.5 273.667 194.5 273C195.381 272.292 196.047 271.458 196.5 270.5Z" fill="#B1987B"/>
<path fill-rule="evenodd" clip-rule="evenodd" d="M236.5 314.5C210.5 315.833 184.5 315.833 158.5 314.5C165.04 306.605 171.707 298.772 178.5 291C191.167 290.333 203.833 290.333 216.5 291C223.293 298.772 229.96 306.605 236.5 314.5Z" fill="#B1997B"/>
<path fill-rule="evenodd" clip-rule="evenodd" d="M111.5 324.5C111.5 319.167 111.5 313.833 111.5 308.5C100.5 308.5 89.5001 308.5 78.5001 308.5C78.5001 313.833 78.5001 319.167 78.5001 324.5C77.5111 319.025 77.1781 313.358 77.5001 307.5C89.1671 307.5 100.833 307.5 112.5 307.5C112.822 313.358 112.489 319.025 111.5 324.5Z" fill="#505E69"/>
<path fill-rule="evenodd" clip-rule="evenodd" d="M316.5 324.5C316.5 319.167 316.5 313.833 316.5 308.5C305.5 308.5 294.5 308.5 283.5 308.5C283.5 313.833 283.5 319.167 283.5 324.5C282.511 319.025 282.178 313.358 282.5 307.5C294.167 307.5 305.833 307.5 317.5 307.5C317.822 313.358 317.489 319.025 316.5 324.5Z" fill="#505E69"/>
<path fill-rule="evenodd" clip-rule="evenodd" d="M111.5 324.5C100.5 324.5 89.5 324.5 78.5 324.5C78.5 319.167 78.5 313.833 78.5 308.5C89.5 308.5 100.5 308.5 111.5 308.5C111.5 313.833 111.5 319.167 111.5 324.5Z" fill="#343534"/>
<path fill-rule="evenodd" clip-rule="evenodd" d="M316.5 324.5C305.5 324.5 294.5 324.5 283.5 324.5C283.5 319.167 283.5 313.833 283.5 308.5C294.5 308.5 305.5 308.5 316.5 308.5C316.5 313.833 316.5 319.167 316.5 324.5Z" fill="#343534"/>
<path fill-rule="evenodd" clip-rule="evenodd" d="M158.5 314.5C184.5 315.833 210.5 315.833 236.5 314.5C237.289 314.783 237.956 315.283 238.5 316C211.167 316.667 183.833 316.667 156.5 316C157.044 315.283 157.711 314.783 158.5 314.5Z" fill="#8E7C67"/>
<path fill-rule="evenodd" clip-rule="evenodd" d="M146.5 333.5C180.5 333.5 214.5 333.5 248.5 333.5C248.5 387.5 248.5 441.5 248.5 495.5C214.5 495.5 180.5 495.5 146.5 495.5C146.5 441.5 146.5 387.5 146.5 333.5Z" fill="#FEB554"/>
<path fill-rule="evenodd" clip-rule="evenodd" d="M188.5 350.5C194.5 350.5 200.5 350.5 206.5 350.5C206.5 393.167 206.5 435.833 206.5 478.5C200.5 478.5 194.5 478.5 188.5 478.5C188.5 435.833 188.5 393.167 188.5 350.5Z" fill="#3F3B36"/>
</svg>
